<!-- Generated by IcoMoon.io -->
<svg version="1.1" xmlns="http://www.w3.org/2000/svg" width="64" height="64" viewBox="0 0 64 64">
<title>benefits-clock</title>
<path fill="#2e2f42" d="M62.593 30.602c-0.003-16.905-13.711-30.606-30.616-30.602s-30.606 13.711-30.602 30.616c0.003 13.316 8.614 25.102 21.299 29.152 0.121 0.038 0.247 0.058 0.374 0.057 0.241-0.001 0.477-0.065 0.685-0.188 0.27-0.16 0.472-0.414 0.566-0.713l7.73-24.5c2.113-0.011 3.817-1.733 3.806-3.846s-1.733-3.817-3.846-3.807c-0.568 0.002-1.129 0.133-1.64 0.383l-10.212-10.213c-0.507-0.489-1.314-0.475-1.803 0.031-0.478 0.495-0.478 1.278 0 1.773l10.206 10.218c-0.783 1.599-0.335 3.528 1.073 4.618l-7.365 23.346c-14.556-5.362-22.009-21.508-16.647-36.063s21.508-22.009 36.063-16.647c14.556 5.362 22.009 21.508 16.647 36.063-2.62 7.111-8.002 12.862-14.924 15.947l-0.796-3.748c-0.145-0.689-0.823-1.129-1.512-0.983-0.217 0.046-0.419 0.148-0.585 0.296l-7.674 6.851c-0.526 0.468-0.573 1.274-0.105 1.801 0.152 0.171 0.348 0.298 0.566 0.368l9.797 3.127c0.67 0.215 1.389-0.153 1.604-0.824 0.068-0.212 0.080-0.438 0.034-0.655l-0.782-3.678c11.329-4.776 18.684-15.884 18.658-28.178zM31.984 29.327c0.704 0 1.275 0.571 1.275 1.275s-0.571 1.275-1.275 1.275c-0.705 0-1.275-0.571-1.275-1.275s0.571-1.275 1.275-1.275zM36.185 59.055l4.368-3.897 1.206 5.681-5.574-1.784z"></path>
<path fill="#4d5ae5" d="M30.709 6.37v2.551c0 0.705 0.571 1.275 1.275 1.275s1.275-0.571 1.275-1.275v-2.551c0-0.704-0.571-1.275-1.275-1.275s-1.275 0.571-1.275 1.275z"></path>
<path fill="#4d5ae5" d="M7.752 29.327c-0.705 0-1.275 0.571-1.275 1.275s0.571 1.275 1.275 1.275h2.551c0.705 0 1.275-0.571 1.275-1.275s-0.571-1.275-1.275-1.275h-2.551z"></path>
<path fill="#4d5ae5" d="M56.216 31.878c0.705 0 1.275-0.571 1.275-1.275s-0.571-1.275-1.275-1.275h-2.551c-0.704 0-1.275 0.571-1.275 1.275s0.571 1.275 1.275 1.275h2.551z"></path>
</svg>
