<!-- Generated by IcoMoon.io -->
<svg version="1.1" xmlns="http://www.w3.org/2000/svg" width="104" height="56" viewBox="0 0 104 56">
<title>customers-client-5</title>
<path d="M26.792 44.373c0.245 0.273 0.376 0.616 0.369 0.968 0.013 0.229-0.032 0.458-0.132 0.67s-0.25 0.4-0.441 0.553c-0.477 0.324-1.068 0.483-1.664 0.446h-2.925v-6.132h2.865c0.566-0.034 1.127 0.11 1.587 0.407 0.185 0.139 0.332 0.316 0.428 0.515s0.14 0.416 0.128 0.633c0.017 0.338-0.101 0.671-0.333 0.938-0.222 0.244-0.529 0.413-0.872 0.479 0.388 0.064 0.738 0.249 0.988 0.524zM23.361 43.447h1.225c0.278 0.019 0.555-0.054 0.779-0.204 0.092-0.075 0.164-0.168 0.209-0.272s0.064-0.216 0.054-0.327c0.009-0.111-0.010-0.222-0.055-0.326s-0.115-0.197-0.205-0.273c-0.231-0.154-0.516-0.228-0.802-0.207h-1.205v1.609zM25.484 45.799c0.098-0.077 0.175-0.173 0.226-0.281s0.072-0.225 0.064-0.342c0.007-0.118-0.015-0.237-0.067-0.346s-0.13-0.206-0.23-0.283c-0.239-0.16-0.534-0.238-0.832-0.222h-1.285v1.687h1.301c0.293 0.015 0.583-0.060 0.822-0.213z"></path>
<path d="M32.649 47.009l-1.594-2.397h-0.599v2.397h-1.371v-6.132h2.596c0.654-0.041 1.301 0.146 1.807 0.521 0.363 0.333 0.582 0.771 0.617 1.237s-0.115 0.927-0.424 1.301c-0.32 0.33-0.758 0.55-1.238 0.623l1.697 2.45h-1.491zM30.456 43.777h1.121c0.779 0 1.168-0.31 1.168-0.929 0.008-0.126-0.013-0.253-0.063-0.372s-0.125-0.227-0.224-0.318c-0.246-0.184-0.563-0.274-0.882-0.249h-1.135l0.013 1.866z"></path>
<path d="M40.143 45.775h-2.732l-0.483 1.234h-1.438l2.509-6.063h1.554l2.499 6.063h-1.438l-0.472-1.234zM39.777 44.846l-0.998-2.588-0.998 2.588h1.997z"></path>
<path d="M49.523 47.009h-1.361l-3.052-4.17v4.17h-1.358v-6.132h1.358l3.052 4.194v-4.194h1.361v6.132z"></path>
<path d="M57.29 45.542c-0.281 0.463-0.71 0.84-1.231 1.081-0.592 0.269-1.25 0.402-1.913 0.386h-2.423v-6.132h2.423c0.662-0.016 1.319 0.114 1.913 0.378 0.521 0.236 0.95 0.609 1.231 1.070 0.28 0.499 0.426 1.050 0.426 1.609s-0.146 1.11-0.426 1.609zM55.733 45.395c0.388-0.407 0.602-0.927 0.602-1.463s-0.214-1.056-0.602-1.463c-0.469-0.369-1.082-0.556-1.704-0.521h-0.945v3.969h0.945c0.622 0.035 1.234-0.152 1.704-0.521z"></path>
<path d="M40.995 6.767c0 0 17.567 5.971 17.194 14.611v14.613c0 0-17.554-5.974-17.188-14.613l-0.007-14.611z"></path>
<path d="M73.839 32.569c3.318-2.055 7.155-3.329 11.161-3.703v-4.575c-4.616 1.602-8.531 4.505-11.161 8.277z"></path>
<path d="M71.846 33.948c2.716-4.922 7.423-8.721 13.154-10.614v-13.181c0 0-25.018 8.505-24.489 20.809v20.806c0 0 1.115-0.381 2.869-1.093 0-0.665 0-1.336 0.080-2.010 0.518-5.712 3.534-11.005 8.386-14.715z"></path>
<path d="M69.466 41.677c0.132-1.443 0.425-2.87 0.875-4.26-3.021 3.204-4.851 7.18-5.231 11.369-0.037 0.395-0.057 0.791-0.067 1.198 1.421-0.614 3.075-1.381 4.812-2.283-0.443-1.982-0.574-4.010-0.389-6.025z"></path>
<path d="M70.461 41.752c-0.167 1.823-0.062 3.657 0.309 5.455 6.835-3.682 14.515-9.371 14.219-16.246v-0.599c-4.883 0.492-9.452 2.414-13.005 5.47-0.832 1.894-1.345 3.889-1.524 5.92z"></path>
</svg>
