<!-- Generated by IcoMoon.io -->
<svg version="1.1" xmlns="http://www.w3.org/2000/svg" width="104" height="56" viewBox="0 0 104 56">
<title>customers-client-3</title>
<path d="M36.81 49.223c0.016 0 0.032 0.003 0.047 0.009s0.028 0.014 0.039 0.024l0.221 0.208c-0.171 0.168-0.383 0.302-0.621 0.394-0.278 0.1-0.579 0.148-0.881 0.141-0.284 0.005-0.566-0.040-0.828-0.132-0.237-0.085-0.449-0.212-0.624-0.373-0.178-0.167-0.315-0.363-0.403-0.575-0.096-0.237-0.144-0.487-0.141-0.738-0.004-0.253 0.048-0.504 0.152-0.741 0.096-0.214 0.242-0.41 0.428-0.575 0.189-0.162 0.414-0.29 0.662-0.375 0.272-0.090 0.561-0.135 0.853-0.132 0.271-0.006 0.54 0.035 0.792 0.12 0.219 0.081 0.419 0.194 0.594 0.333l-0.185 0.222c-0.013 0.016-0.029 0.029-0.047 0.040-0.022 0.013-0.048 0.019-0.074 0.017-0.029-0.002-0.056-0.010-0.080-0.024l-0.099-0.059-0.138-0.076c-0.060-0.028-0.121-0.052-0.185-0.073-0.082-0.025-0.166-0.045-0.251-0.059-0.108-0.017-0.218-0.025-0.329-0.024-0.21-0.002-0.418 0.032-0.613 0.099-0.181 0.063-0.345 0.157-0.48 0.278-0.138 0.129-0.244 0.279-0.312 0.444-0.078 0.188-0.116 0.386-0.113 0.585-0.003 0.202 0.035 0.403 0.113 0.594 0.067 0.163 0.171 0.313 0.306 0.441 0.126 0.12 0.283 0.213 0.458 0.274 0.18 0.064 0.374 0.096 0.569 0.094 0.113 0.001 0.225-0.005 0.337-0.019 0.182-0.019 0.357-0.073 0.511-0.158 0.077-0.043 0.15-0.092 0.218-0.146 0.028-0.023 0.066-0.037 0.105-0.038z"></path>
<path d="M43.186 48.18c0.004 0.25-0.047 0.499-0.149 0.734-0.090 0.213-0.232 0.407-0.416 0.57s-0.406 0.29-0.652 0.374c-0.54 0.176-1.138 0.176-1.678 0-0.244-0.085-0.465-0.213-0.649-0.375-0.184-0.165-0.327-0.361-0.42-0.575-0.199-0.475-0.199-0.994 0-1.469 0.094-0.214 0.237-0.411 0.42-0.578 0.185-0.157 0.406-0.28 0.649-0.361 0.54-0.179 1.138-0.179 1.678 0 0.245 0.085 0.467 0.213 0.651 0.375 0.182 0.164 0.323 0.357 0.417 0.568 0.102 0.236 0.153 0.486 0.149 0.738zM42.606 48.18c0.004-0.2-0.031-0.4-0.105-0.59-0.062-0.163-0.162-0.313-0.295-0.441-0.129-0.121-0.289-0.216-0.466-0.278-0.393-0.129-0.827-0.129-1.22 0-0.178 0.062-0.337 0.157-0.466 0.278-0.135 0.127-0.236 0.278-0.298 0.441-0.14 0.384-0.14 0.795 0 1.179 0.062 0.163 0.164 0.313 0.298 0.441 0.13 0.12 0.289 0.215 0.466 0.276 0.393 0.126 0.827 0.126 1.22 0 0.178-0.061 0.337-0.155 0.466-0.276 0.132-0.128 0.233-0.279 0.295-0.441 0.074-0.19 0.109-0.389 0.105-0.59z"></path>
<path d="M47.537 48.799l0.058 0.132c0.022-0.047 0.041-0.090 0.063-0.132 0.021-0.044 0.045-0.088 0.072-0.13l1.41-2.191c0.028-0.038 0.053-0.061 0.080-0.068 0.038-0.010 0.077-0.014 0.116-0.012h0.417v3.563h-0.494v-2.62c0-0.033 0-0.071 0-0.111-0.003-0.041-0.003-0.082 0-0.123l-1.419 2.222c-0.018 0.033-0.047 0.062-0.083 0.081s-0.078 0.030-0.121 0.030h-0.080c-0.043 0-0.085-0.010-0.122-0.029s-0.065-0.048-0.083-0.081l-1.46-2.236c0 0.042 0 0.085 0 0.127s0 0.080 0 0.113v2.62h-0.477v-3.556h0.417c0.039-0.002 0.078 0.002 0.116 0.012 0.034 0.014 0.062 0.039 0.077 0.068l1.441 2.193c0.028 0.041 0.052 0.083 0.072 0.127z"></path>
<path d="M52.845 48.622v1.335h-0.552v-3.559h1.231c0.232-0.004 0.464 0.022 0.687 0.078 0.179 0.043 0.344 0.119 0.486 0.222 0.123 0.096 0.217 0.216 0.276 0.349 0.065 0.145 0.097 0.3 0.094 0.455 0.003 0.156-0.032 0.311-0.102 0.455-0.066 0.137-0.168 0.258-0.298 0.356-0.142 0.107-0.308 0.188-0.489 0.236-0.215 0.059-0.44 0.087-0.665 0.083l-0.668-0.009zM52.845 48.24h0.668c0.145 0.002 0.29-0.017 0.428-0.054 0.114-0.033 0.219-0.085 0.309-0.153 0.083-0.065 0.147-0.146 0.188-0.236 0.045-0.095 0.068-0.197 0.066-0.3 0.007-0.099-0.012-0.198-0.055-0.29s-0.109-0.175-0.193-0.243c-0.211-0.141-0.476-0.209-0.742-0.191h-0.668v1.467z"></path>
<path d="M60.264 49.961h-0.436c-0.044 0.001-0.087-0.010-0.121-0.033-0.031-0.022-0.056-0.050-0.072-0.083l-0.375-0.861h-1.885l-0.389 0.861c-0.014 0.032-0.038 0.059-0.069 0.080-0.035 0.024-0.079 0.037-0.124 0.035h-0.436l1.656-3.564h0.574l1.678 3.564zM57.532 48.638h1.557l-0.657-1.45c-0.050-0.109-0.092-0.221-0.124-0.335l-0.063 0.186c-0.019 0.057-0.041 0.108-0.061 0.151l-0.651 1.448z"></path>
<path d="M62.65 46.414c0.033 0.015 0.061 0.037 0.083 0.064l2.415 2.686c0-0.042 0-0.085 0-0.125s0-0.080 0-0.118v-2.524h0.494v3.564h-0.276c-0.039 0.001-0.078-0.006-0.113-0.021-0.034-0.017-0.064-0.039-0.088-0.066l-2.412-2.684c0.003 0.041 0.003 0.082 0 0.123 0 0.040 0 0.076 0 0.108v2.54h-0.494v-3.564h0.293c0.034-0.001 0.068 0.005 0.099 0.017z"></path>
<path d="M69.71 48.544v1.415h-0.552v-1.415l-1.526-2.146h0.494c0.043-0.002 0.085 0.009 0.119 0.031 0.030 0.023 0.055 0.050 0.075 0.080l0.955 1.384c0.039 0.059 0.072 0.113 0.099 0.165s0.050 0.101 0.069 0.151l0.072-0.153c0.027-0.056 0.058-0.111 0.094-0.163l0.941-1.394c0.020-0.028 0.044-0.053 0.072-0.075 0.033-0.025 0.075-0.037 0.119-0.035h0.5l-1.529 2.156z"></path>
<path d="M47.263 40.417c0.24 0.026 0.483 0.047 0.729 0.066 3.725-1.424 6.875-3.753 9.059-6.699s3.302-6.375 3.217-9.86l-4.105-3.507c0.835 3.711 0.444 7.547-1.127 11.079s-4.263 6.621-7.772 8.921z"></path>
<path d="M45.797 40.254l0.11 0.019c3.75-2.292 6.609-5.492 8.207-9.187s1.862-7.714 0.758-11.539l-5.846-4.995c2.365 4.106 3.317 8.701 2.745 13.251s-2.643 8.868-5.974 12.451z"></path>
<path d="M65.625 28.042c-0.993 3.83-3.406 7.283-6.879 9.849-1.014 0.753-2.108 1.424-3.268 2.005 2.828-0.71 5.428-1.966 7.598-3.67s3.854-3.812 4.92-6.16l-2.371-2.023z"></path>
<path d="M64.695 27.478l-3.376-2.884c-0.064 3.289-1.159 6.502-3.169 9.307s-4.863 5.099-8.262 6.643h0.017c0.757-0 1.514-0.039 2.266-0.116 3.176-1.108 5.982-2.87 8.168-5.13s3.682-4.946 4.356-7.82z"></path>
<path d="M46.286 12.446l-4.027-3.446c-3.6 1.189-6.697 3.278-8.884 5.996s-3.364 5.935-3.375 9.233v0c0.014 3.644 1.449 7.18 4.079 10.048s6.305 4.906 10.443 5.789c3.694-3.845 5.856-8.596 6.174-13.563s-1.228-9.891-4.41-14.057z"></path>
<path d="M74 26.948c-0.015-4.323-2.031-8.466-5.609-11.523s-8.427-4.78-13.487-4.792c-2.338-0.002-4.657 0.367-6.837 1.087l24.658 21.068c0.844-1.862 1.277-3.842 1.275-5.839z"></path>
</svg>
