<!-- Generated by IcoMoon.io -->
<svg version="1.1" xmlns="http://www.w3.org/2000/svg" width="104" height="56" viewBox="0 0 104 56">
<title>customers-client-2</title>
<path d="M50.114 5.935h-0.137c-0.21-0.013-0.42-0.018-0.63-0.023v0h-0.455c-0.397 0-0.802 0.010-1.204 0.031-0.030-0.002-0.061-0.002-0.091 0-3.644 0.206-7.215 1.117-10.516 2.683l-0.433 0.209v22.141l1.012-0.343c0.888-0.305 1.834-0.58 2.813-0.834 2.646-0.679 5.364-1.040 8.095-1.076v2.909c-0.362 0.003-0.713 0.013-1.065 0.031h-0.084c-2.102 0.115-4.188 0.435-6.228 0.956-2.584 0.647-5.077 1.618-7.42 2.891v-28.397c2.433-1.419 5.054-2.485 7.784-3.166 2.397-0.619 4.861-0.937 7.336-0.946h0.427c0.511 0.013 1.009 0.036 1.477 0.071 1.233 0.087 2.456 0.281 3.655 0.582v2.863c-1.165-0.271-2.349-0.45-3.542-0.534-0.024-0.002-0.048-0.004-0.073-0.006-0.247-0.021-0.494-0.042-0.724-0.042zM55.153 8.861c0.635 0.048 1.293 0.071 1.958 0.071 2.602-0.010 5.192-0.342 7.713-0.989 2.583-0.649 5.075-1.622 7.417-2.894v27.891c-2.434 1.418-5.056 2.484-7.787 3.166-2.397 0.617-4.861 0.933-7.336 0.944-1.875 0.015-3.745-0.205-5.565-0.656v-28.071c0.43 0.099 0.873 0.191 1.323 0.267 0.739 0.125 1.518 0.216 2.277 0.272zM69.347 9.078l-1.012 0.341c-0.931 0.313-1.869 0.593-2.813 0.842-2.747 0.706-5.571 1.068-8.406 1.078-0.66 0-1.267-0.018-1.854-0.056l-0.807-0.053v22.777l0.693 0.061c0.643 0.056 1.305 0.084 1.973 0.084 2.233-0.009 4.457-0.297 6.62-0.857 1.781-0.447 3.514-1.069 5.173-1.859l0.433-0.209v-22.149z"></path>
<path d="M35.737 45.212c-0.145-0.151-0.321-0.269-0.515-0.348s-0.402-0.115-0.611-0.107c-0.223-0.003-0.444 0.038-0.65 0.122-0.189 0.075-0.361 0.189-0.506 0.333-0.143 0.145-0.254 0.318-0.326 0.509-0.079 0.2-0.119 0.413-0.116 0.628v3.794c-0.009 0.267 0.042 0.533 0.149 0.778 0.090 0.194 0.219 0.368 0.379 0.509 0.152 0.128 0.33 0.22 0.521 0.27 0.184 0.052 0.375 0.078 0.567 0.079 0.211 0.002 0.42-0.043 0.612-0.132 0.19-0.083 0.361-0.202 0.506-0.351 0.141-0.147 0.253-0.32 0.331-0.509 0.081-0.191 0.122-0.397 0.122-0.605v-0.425h-0.992v0.338c0.003 0.115-0.017 0.23-0.058 0.338-0.032 0.081-0.081 0.154-0.144 0.214-0.061 0.050-0.132 0.087-0.207 0.109-0.067 0.022-0.137 0.034-0.207 0.036-0.089 0.010-0.178-0.003-0.26-0.039s-0.153-0.092-0.206-0.165c-0.094-0.153-0.139-0.33-0.132-0.509v-3.537c-0.006-0.196 0.035-0.391 0.121-0.567 0.052-0.080 0.124-0.144 0.21-0.185s0.181-0.056 0.276-0.044c0.085-0.003 0.17 0.015 0.248 0.052s0.144 0.093 0.195 0.162c0.111 0.146 0.169 0.325 0.164 0.509v0.328h0.982v-0.386c0.002-0.227-0.039-0.452-0.122-0.664-0.073-0.199-0.186-0.381-0.331-0.534z"></path>
<path d="M41.629 45.169c-0.316-0.267-0.715-0.414-1.128-0.417-0.202 0.001-0.402 0.037-0.592 0.107-0.193 0.069-0.37 0.174-0.524 0.31-0.164 0.148-0.295 0.329-0.385 0.532-0.1 0.232-0.149 0.482-0.144 0.735v3.639c-0.007 0.256 0.042 0.51 0.144 0.745 0.090 0.196 0.221 0.369 0.385 0.508 0.152 0.141 0.33 0.25 0.524 0.321 0.19 0.070 0.39 0.106 0.592 0.107 0.202-0 0.402-0.037 0.592-0.107 0.197-0.072 0.379-0.181 0.536-0.321 0.158-0.142 0.286-0.315 0.374-0.508 0.102-0.235 0.151-0.489 0.144-0.745v-3.639c0.005-0.252-0.044-0.503-0.144-0.735-0.088-0.2-0.216-0.381-0.374-0.532zM41.166 50.074c0.008 0.097-0.005 0.195-0.039 0.286s-0.088 0.173-0.158 0.241c-0.131 0.11-0.296 0.17-0.467 0.17s-0.336-0.060-0.467-0.17c-0.070-0.067-0.124-0.15-0.158-0.241s-0.048-0.189-0.039-0.286v-3.639c-0.008-0.097 0.005-0.195 0.039-0.286s0.088-0.173 0.158-0.241c0.131-0.11 0.296-0.17 0.467-0.17s0.336 0.060 0.467 0.17c0.070 0.067 0.124 0.15 0.158 0.241s0.048 0.189 0.039 0.286v3.639z"></path>
<path d="M49.367 51.699v-6.889h-0.954l-1.252 3.647h-0.018l-1.262-3.647h-0.944v6.889h0.984v-4.191h0.018l0.964 2.962h0.491l0.971-2.962h0.018v4.191h0.984z"></path>
<path d="M54.958 45.294c-0.152-0.17-0.343-0.299-0.557-0.376-0.23-0.075-0.471-0.111-0.713-0.107h-1.462v6.889h0.981v-2.69h0.506c0.306 0.014 0.611-0.051 0.885-0.188 0.223-0.124 0.409-0.306 0.539-0.526 0.113-0.183 0.19-0.387 0.225-0.6 0.039-0.259 0.056-0.521 0.053-0.783 0.010-0.331-0.023-0.662-0.096-0.984-0.066-0.238-0.19-0.456-0.362-0.633zM54.452 47.394c-0.004 0.125-0.035 0.247-0.091 0.359-0.056 0.106-0.145 0.191-0.253 0.242-0.145 0.065-0.304 0.095-0.463 0.087h-0.448v-2.342h0.506c0.152-0.007 0.304 0.022 0.443 0.086 0.102 0.058 0.182 0.147 0.23 0.254 0.054 0.121 0.083 0.252 0.086 0.384 0 0.145 0 0.298 0 0.458s0.010 0.325 0 0.473h-0.010z"></path>
<path d="M59.608 44.811h-0.805l-1.518 6.889h0.981l0.288-1.48h1.338l0.288 1.48h0.982l-1.556-6.889zM58.702 49.281l0.483-2.497h0.018l0.481 2.497h-0.982z"></path>
<path d="M65.95 48.961h-0.018l-1.482-4.15h-0.944v6.889h0.981v-4.142h0.020l1.5 4.142h0.923v-6.889h-0.981v4.15z"></path>
<path d="M71.948 44.811l-0.789 2.739h-0.020l-0.789-2.739h-1.040l1.348 3.977v2.912h0.982v-2.912l1.348-3.977h-1.040z"></path>
<path d="M33 53.645h0.473v1.327h0.321v-1.327h0.471v-0.272h-1.265v0.272z"></path>
<path d="M36.977 53.372l-0.62 1.6h0.342l0.132-0.364h0.637l0.137 0.364h0.349l-0.635-1.6h-0.342zM36.926 54.339l0.218-0.592 0.217 0.592h-0.435z"></path>
<path d="M40.908 54.382h0.369v0.206c-0.108 0.087-0.242 0.134-0.379 0.135-0.064 0.004-0.129-0.008-0.188-0.035s-0.111-0.067-0.151-0.118c-0.085-0.122-0.127-0.269-0.119-0.417 0-0.356 0.154-0.534 0.46-0.534 0.081-0.008 0.161 0.013 0.228 0.060s0.114 0.116 0.134 0.194l0.316-0.061c-0.068-0.313-0.293-0.47-0.678-0.47-0.206-0.006-0.406 0.068-0.559 0.206-0.081 0.080-0.143 0.176-0.183 0.282s-0.056 0.22-0.048 0.333c-0.009 0.219 0.064 0.433 0.205 0.6 0.078 0.081 0.173 0.144 0.278 0.184s0.217 0.057 0.329 0.050c0.25 0.007 0.493-0.084 0.678-0.254v-0.631h-0.693v0.27z"></path>
<path d="M44.923 53.372h-0.324v1.6h1.121v-0.272h-0.797v-1.327z"></path>
<path d="M48.317 53.372h-0.324v1.6h0.324v-1.6z"></path>
<path d="M51.636 54.44l-0.655-1.068h-0.314v1.6h0.301v-1.045l0.643 1.045h0.321v-1.6h-0.296v1.068z"></path>
<path d="M54.637 54.268h0.797v-0.272h-0.797v-0.351h0.858v-0.272h-1.181v1.6h1.214v-0.272h-0.89v-0.432z"></path>
<path d="M61.912 54.003h-0.63v-0.631h-0.321v1.6h0.321v-0.699h0.63v0.699h0.321v-1.6h-0.321v0.631z"></path>
<path d="M64.93 54.268h0.799v-0.272h-0.799v-0.351h0.86v-0.272h-1.181v1.6h1.212v-0.272h-0.89v-0.432z"></path>
<path d="M69.023 54.268c0.278-0.043 0.42-0.191 0.42-0.445 0.008-0.068-0.002-0.137-0.030-0.2s-0.071-0.117-0.127-0.156c-0.145-0.073-0.306-0.105-0.468-0.094h-0.678v1.599h0.321v-0.669h0.063c0.069-0.004 0.137 0.008 0.2 0.036 0.047 0.029 0.086 0.069 0.114 0.117l0.349 0.509h0.385l-0.195-0.313c-0.086-0.154-0.207-0.286-0.354-0.384zM68.699 54.046h-0.238v-0.402h0.253c0.11-0.009 0.221 0.004 0.326 0.038 0.023 0.021 0.042 0.046 0.054 0.075s0.018 0.060 0.016 0.091c-0.001 0.031-0.010 0.062-0.025 0.089s-0.036 0.051-0.061 0.070c-0.106 0.032-0.216 0.045-0.326 0.038z"></path>
<path d="M72.11 54.268h0.797v-0.272h-0.797v-0.351h0.86v-0.272h-1.184v1.6h1.214v-0.272h-0.89v-0.432z"></path>
</svg>
