<!-- Generated by IcoMoon.io -->
<svg version="1.1" xmlns="http://www.w3.org/2000/svg" width="104" height="56" viewBox="0 0 104 56">
<title>customers-client-4</title>
<path d="M24.078 21.518h-0.003c-2.386 0-4.32 1.744-4.32 3.895v0.003c0 2.151 1.934 3.894 4.32 3.894h0.003c2.386 0 4.32-1.744 4.32-3.894v-0.003c0-2.151-1.934-3.895-4.32-3.895z"></path>
<path d="M55.961 20.273c-0.007-2.988-1.326-5.851-3.668-7.964s-5.518-3.303-8.832-3.309v0c-3.315 0.005-6.492 1.195-8.835 3.308s-3.664 4.977-3.671 7.965v16.474c0 0 25.004-2.511 25.006-16.472v-0.003z"></path>
<path d="M11 42.154c0.006 2.079 0.924 4.071 2.554 5.541s3.839 2.299 6.145 2.305c2.305-0.006 4.514-0.834 6.144-2.304s2.549-3.461 2.555-5.539v-11.463c0 0-17.398 1.748-17.398 11.46zM19.699 44.208c-0.451 0-0.891-0.12-1.266-0.346s-0.667-0.546-0.839-0.922-0.217-0.788-0.13-1.187c0.088-0.398 0.305-0.764 0.623-1.052s0.724-0.483 1.166-0.562c0.442-0.079 0.9-0.038 1.316 0.117s0.772 0.419 1.022 0.756c0.25 0.338 0.384 0.735 0.384 1.141 0.001 0.27-0.057 0.538-0.171 0.788s-0.282 0.477-0.493 0.669c-0.212 0.192-0.463 0.343-0.74 0.447s-0.574 0.157-0.874 0.157v-0.008z"></path>
<path d="M35.609 40.515v4.266h-0.879v-4.266h0.879zM37.308 42.337v0.686h-1.939v-0.686h1.939zM37.513 40.515v0.689h-2.145v-0.689h2.145zM41.527 42.548v0.202c0 0.324-0.044 0.615-0.132 0.873s-0.212 0.478-0.372 0.659c-0.16 0.18-0.351 0.317-0.574 0.413-0.221 0.096-0.466 0.143-0.735 0.143-0.268 0-0.513-0.048-0.735-0.143-0.221-0.096-0.412-0.233-0.574-0.413-0.162-0.182-0.288-0.401-0.378-0.659-0.088-0.258-0.132-0.549-0.132-0.873v-0.202c0-0.326 0.044-0.617 0.132-0.873 0.088-0.258 0.212-0.478 0.372-0.659 0.162-0.182 0.354-0.32 0.574-0.416 0.223-0.096 0.468-0.144 0.735-0.144 0.27 0 0.515 0.048 0.735 0.144 0.223 0.096 0.414 0.234 0.574 0.416 0.162 0.182 0.287 0.401 0.375 0.659 0.090 0.256 0.135 0.547 0.135 0.873zM40.639 42.75v-0.208c0-0.227-0.021-0.426-0.062-0.598s-0.102-0.316-0.182-0.434-0.178-0.205-0.293-0.264c-0.115-0.060-0.247-0.091-0.395-0.091s-0.28 0.030-0.395 0.091c-0.113 0.059-0.21 0.147-0.29 0.264-0.078 0.117-0.138 0.262-0.179 0.434s-0.062 0.371-0.062 0.598v0.208c0 0.225 0.021 0.424 0.062 0.598 0.041 0.172 0.102 0.317 0.182 0.437 0.080 0.117 0.178 0.206 0.293 0.267s0.247 0.091 0.395 0.091c0.148 0 0.28-0.030 0.395-0.091s0.212-0.149 0.29-0.267c0.078-0.119 0.138-0.265 0.179-0.437 0.041-0.174 0.062-0.373 0.062-0.598zM44.38 43.664c0-0.076-0.012-0.144-0.035-0.205-0.021-0.063-0.063-0.119-0.123-0.17-0.061-0.053-0.146-0.105-0.255-0.155s-0.251-0.104-0.425-0.158c-0.193-0.063-0.377-0.133-0.551-0.211-0.172-0.078-0.324-0.169-0.457-0.272-0.131-0.105-0.234-0.228-0.311-0.366-0.074-0.139-0.111-0.3-0.111-0.483 0-0.178 0.039-0.339 0.117-0.483 0.078-0.146 0.188-0.271 0.328-0.375 0.141-0.105 0.307-0.186 0.498-0.243 0.193-0.057 0.405-0.085 0.636-0.085 0.314 0 0.589 0.057 0.823 0.17s0.416 0.269 0.545 0.466c0.131 0.197 0.196 0.423 0.196 0.677h-0.873c0-0.125-0.026-0.234-0.079-0.328-0.051-0.096-0.129-0.171-0.234-0.226-0.104-0.055-0.234-0.082-0.393-0.082-0.152 0-0.279 0.023-0.381 0.070-0.102 0.045-0.178 0.106-0.228 0.185-0.051 0.076-0.076 0.162-0.076 0.258 0 0.072 0.018 0.138 0.053 0.196 0.037 0.059 0.092 0.113 0.164 0.164s0.161 0.099 0.267 0.144c0.105 0.045 0.227 0.089 0.366 0.132 0.232 0.070 0.437 0.149 0.612 0.237 0.178 0.088 0.326 0.186 0.445 0.296s0.209 0.233 0.27 0.372c0.060 0.139 0.091 0.296 0.091 0.472 0 0.186-0.036 0.351-0.108 0.498s-0.177 0.27-0.314 0.372c-0.137 0.102-0.3 0.179-0.489 0.231s-0.401 0.079-0.636 0.079c-0.211 0-0.419-0.027-0.624-0.082-0.205-0.057-0.392-0.142-0.56-0.255-0.166-0.113-0.299-0.258-0.398-0.434s-0.149-0.384-0.149-0.624h0.882c0 0.133 0.021 0.245 0.062 0.337s0.099 0.166 0.173 0.223c0.076 0.057 0.166 0.098 0.27 0.123 0.105 0.025 0.221 0.038 0.346 0.038 0.152 0 0.277-0.021 0.375-0.064 0.1-0.043 0.173-0.103 0.22-0.179 0.049-0.076 0.073-0.162 0.073-0.258zM47.764 40.515v4.266h-0.876v-4.266h0.876zM49.077 40.515v0.689h-3.48v-0.689h3.48zM52.44 44.095v0.686h-2.271v-0.686h2.271zM50.456 40.515v4.266h-0.879v-4.266h0.879zM52.144 42.252v0.668h-1.975v-0.668h1.975zM52.437 40.515v0.689h-2.268v-0.689h2.268zM52.953 40.515h1.591c0.326 0 0.606 0.049 0.841 0.147 0.236 0.098 0.418 0.242 0.545 0.434s0.19 0.427 0.19 0.706c0 0.229-0.039 0.425-0.117 0.589-0.076 0.162-0.185 0.298-0.325 0.407-0.139 0.108-0.302 0.193-0.489 0.258l-0.278 0.146h-1.383l-0.006-0.686h1.028c0.154 0 0.282-0.027 0.384-0.082s0.178-0.131 0.228-0.229c0.053-0.098 0.079-0.211 0.079-0.34 0-0.137-0.025-0.255-0.076-0.354s-0.128-0.176-0.231-0.228-0.233-0.079-0.39-0.079h-0.712v3.577h-0.879v-4.266zM55.337 44.781l-0.973-1.901 0.929-0.006 0.984 1.866v0.041h-0.94zM59.952 43.26h-1.087v-0.686h1.087c0.168 0 0.305-0.027 0.41-0.082 0.105-0.057 0.183-0.135 0.231-0.234s0.073-0.212 0.073-0.337c0-0.127-0.024-0.245-0.073-0.354s-0.126-0.197-0.231-0.264-0.242-0.1-0.41-0.1h-0.782v3.577h-0.879v-4.266h1.661c0.334 0 0.62 0.061 0.858 0.182 0.24 0.119 0.424 0.284 0.551 0.495s0.19 0.452 0.19 0.724c0 0.275-0.063 0.514-0.19 0.715s-0.311 0.357-0.551 0.466c-0.238 0.109-0.525 0.164-0.858 0.164zM65.020 44.095v0.686h-2.271v-0.686h2.271zM63.037 40.515v4.266h-0.879v-4.266h0.879zM64.724 42.252v0.668h-1.975v-0.668h1.975zM65.017 40.515v0.689h-2.268v-0.689h2.268zM67.498 40.515v4.266h-0.876v-4.266h0.876zM68.811 40.515v0.689h-3.48v-0.689h3.48zM72.174 44.095v0.686h-2.271v-0.686h2.271zM70.191 40.515v4.266h-0.879v-4.266h0.879zM71.878 42.252v0.668h-1.975v-0.668h1.975zM72.171 40.515v0.689h-2.268v-0.689h2.268zM72.687 40.515h1.591c0.326 0 0.606 0.049 0.841 0.147 0.236 0.098 0.418 0.242 0.545 0.434s0.19 0.427 0.19 0.706c0 0.229-0.039 0.425-0.117 0.589-0.076 0.162-0.185 0.298-0.325 0.407-0.139 0.108-0.302 0.193-0.489 0.258l-0.278 0.146h-1.383l-0.006-0.686h1.028c0.154 0 0.282-0.027 0.384-0.082s0.178-0.131 0.228-0.229c0.053-0.098 0.079-0.211 0.079-0.34 0-0.137-0.025-0.255-0.076-0.354s-0.128-0.176-0.231-0.228c-0.104-0.053-0.233-0.079-0.39-0.079h-0.712v3.577h-0.879v-4.266zM75.072 44.781l-0.973-1.901 0.929-0.006 0.984 1.866v0.041h-0.94zM78.751 43.664c0-0.076-0.012-0.144-0.035-0.205-0.021-0.063-0.063-0.119-0.123-0.17-0.061-0.053-0.146-0.105-0.255-0.155s-0.251-0.104-0.425-0.158c-0.193-0.063-0.377-0.133-0.551-0.211-0.172-0.078-0.324-0.169-0.457-0.272-0.131-0.105-0.234-0.228-0.311-0.366-0.074-0.139-0.111-0.3-0.111-0.483 0-0.178 0.039-0.339 0.117-0.483 0.078-0.146 0.188-0.271 0.328-0.375 0.141-0.105 0.307-0.186 0.498-0.243 0.193-0.057 0.405-0.085 0.636-0.085 0.314 0 0.589 0.057 0.823 0.17s0.416 0.269 0.545 0.466c0.131 0.197 0.196 0.423 0.196 0.677h-0.873c0-0.125-0.026-0.234-0.079-0.328-0.051-0.096-0.129-0.171-0.234-0.226-0.104-0.055-0.234-0.082-0.393-0.082-0.152 0-0.279 0.023-0.381 0.070-0.102 0.045-0.178 0.106-0.228 0.185-0.051 0.076-0.076 0.162-0.076 0.258 0 0.072 0.018 0.138 0.053 0.196 0.037 0.059 0.092 0.113 0.164 0.164s0.161 0.099 0.267 0.144c0.105 0.045 0.228 0.089 0.366 0.132 0.232 0.070 0.437 0.149 0.612 0.237 0.178 0.088 0.326 0.186 0.445 0.296s0.209 0.233 0.27 0.372c0.060 0.139 0.091 0.296 0.091 0.472 0 0.186-0.036 0.351-0.108 0.498s-0.177 0.27-0.314 0.372c-0.137 0.102-0.3 0.179-0.489 0.231s-0.401 0.079-0.636 0.079c-0.211 0-0.419-0.027-0.624-0.082-0.205-0.057-0.392-0.142-0.56-0.255-0.166-0.113-0.299-0.258-0.398-0.434s-0.149-0.384-0.149-0.624h0.882c0 0.133 0.021 0.245 0.062 0.337s0.099 0.166 0.173 0.223c0.076 0.057 0.166 0.098 0.27 0.123 0.105 0.025 0.221 0.038 0.346 0.038 0.152 0 0.277-0.021 0.375-0.064 0.1-0.043 0.173-0.103 0.22-0.179 0.049-0.076 0.073-0.162 0.073-0.258z"></path>
</svg>
