<!-- Generated by IcoMoon.io -->
<svg version="1.1" xmlns="http://www.w3.org/2000/svg" width="104" height="56" viewBox="0 0 104 56">
<title>customers-client-1</title>
<path d="M38 7l7.008 6.676-13.008-0.008v32.392h34v-12.385l7 6.669v-33.345h-35zM65.692 32.892l-19.87-18.93h19.87v18.93zM59.523 41.323h-22.143v-21.785h1.565v20.31h20.578v1.475zM41.796 52.061l-0.825-1.697h-0.681l1.196 2.246v1.309h0.618v-1.309l1.196-2.246h-0.679l-0.825 1.697zM44.838 50.364h0.147l1.343 3.555h-0.644l-0.288-0.833h-1.376l-0.287 0.833h-0.642l1.338-3.555h0.41zM44.186 52.601h1.041l-0.521-1.508-0.52 1.508zM48.482 52.012c-0.027-0.034-0.053-0.067-0.077-0.099-0.091-0.12-0.162-0.237-0.212-0.349-0.050-0.114-0.076-0.231-0.076-0.352 0-0.186 0.038-0.345 0.115-0.479s0.185-0.236 0.325-0.308c0.14-0.073 0.304-0.11 0.491-0.11 0.181 0 0.336 0.037 0.466 0.11 0.132 0.072 0.233 0.167 0.303 0.286 0.072 0.119 0.107 0.249 0.107 0.391 0 0.112-0.020 0.215-0.061 0.308s-0.097 0.177-0.168 0.254c-0.072 0.077-0.155 0.149-0.249 0.217l-0.247 0.18 0.704 0.831c0.023-0.046 0.044-0.094 0.063-0.144 0.060-0.156 0.090-0.33 0.090-0.52h0.508c0 0.173-0.017 0.336-0.051 0.491-0.032 0.155-0.085 0.298-0.159 0.43-0.030 0.055-0.063 0.107-0.101 0.157l0.521 0.615h-0.681l-0.207-0.243c-0.112 0.085-0.233 0.151-0.365 0.199-0.172 0.062-0.356 0.093-0.552 0.093-0.236 0-0.44-0.043-0.613-0.129s-0.306-0.205-0.4-0.357c-0.093-0.151-0.139-0.325-0.139-0.52 0-0.145 0.030-0.272 0.090-0.381 0.060-0.111 0.143-0.213 0.247-0.308 0.096-0.087 0.206-0.175 0.329-0.262zM48.774 52.369l-0.074 0.053c-0.086 0.070-0.151 0.138-0.193 0.203-0.041 0.063-0.067 0.122-0.081 0.176s-0.020 0.101-0.020 0.142c0 0.104 0.022 0.199 0.066 0.283 0.046 0.085 0.112 0.152 0.198 0.203 0.088 0.049 0.195 0.073 0.32 0.073 0.135 0 0.266-0.030 0.393-0.090 0.064-0.031 0.124-0.068 0.181-0.112l-0.791-0.93zM48.914 51.72l0.218-0.147c0.103-0.068 0.176-0.135 0.22-0.2 0.044-0.067 0.066-0.15 0.066-0.249 0-0.085-0.033-0.163-0.098-0.234s-0.157-0.107-0.276-0.107c-0.083 0-0.153 0.020-0.21 0.059-0.057 0.037-0.1 0.088-0.129 0.151-0.028 0.062-0.042 0.131-0.042 0.207 0 0.073 0.019 0.149 0.056 0.227 0.038 0.077 0.089 0.157 0.154 0.242 0.013 0.017 0.027 0.034 0.041 0.052zM55.133 52.762h-0.61c-0.018 0.155-0.055 0.286-0.112 0.393-0.055 0.106-0.137 0.186-0.246 0.242-0.108 0.055-0.248 0.083-0.422 0.083-0.143 0-0.266-0.028-0.369-0.085s-0.187-0.137-0.254-0.242c-0.065-0.104-0.114-0.229-0.146-0.374-0.031-0.147-0.046-0.309-0.046-0.488v-0.3c0-0.189 0.017-0.356 0.051-0.503 0.036-0.148 0.089-0.273 0.159-0.374s0.157-0.177 0.261-0.229c0.104-0.052 0.226-0.078 0.366-0.078 0.171 0 0.309 0.029 0.415 0.088 0.106 0.057 0.186 0.14 0.239 0.249 0.055 0.109 0.091 0.24 0.107 0.393h0.61c-0.024-0.238-0.091-0.448-0.2-0.632-0.107-0.184-0.259-0.328-0.454-0.432s-0.434-0.156-0.718-0.156c-0.223 0-0.424 0.039-0.603 0.117-0.177 0.078-0.329 0.191-0.456 0.339-0.127 0.146-0.225 0.323-0.293 0.53-0.067 0.207-0.1 0.438-0.1 0.693v0.295c0 0.255 0.033 0.487 0.098 0.693 0.067 0.207 0.163 0.383 0.288 0.53 0.125 0.145 0.276 0.257 0.452 0.337 0.176 0.078 0.374 0.117 0.593 0.117 0.287 0 0.53-0.052 0.73-0.156s0.356-0.247 0.466-0.427c0.111-0.182 0.176-0.39 0.195-0.623zM58.524 52.239v-0.195c0-0.269-0.036-0.509-0.107-0.72-0.070-0.213-0.17-0.395-0.3-0.544-0.13-0.151-0.286-0.266-0.466-0.344-0.181-0.080-0.381-0.12-0.601-0.12-0.218 0-0.417 0.040-0.598 0.12-0.179 0.078-0.335 0.193-0.466 0.344-0.13 0.15-0.231 0.331-0.303 0.544-0.072 0.212-0.107 0.452-0.107 0.72v0.195c0 0.269 0.036 0.51 0.107 0.723 0.073 0.213 0.176 0.395 0.308 0.544s0.287 0.265 0.466 0.344c0.181 0.078 0.38 0.117 0.598 0.117 0.22 0 0.42-0.039 0.601-0.117 0.181-0.080 0.335-0.195 0.464-0.344 0.13-0.15 0.23-0.331 0.3-0.544s0.105-0.454 0.105-0.723zM57.912 52.039v0.2c0 0.199-0.020 0.374-0.059 0.527-0.037 0.153-0.093 0.282-0.166 0.388-0.073 0.104-0.163 0.183-0.269 0.237-0.106 0.052-0.227 0.078-0.364 0.078-0.135 0-0.255-0.026-0.361-0.078-0.106-0.054-0.197-0.133-0.273-0.237-0.075-0.106-0.132-0.235-0.171-0.388s-0.059-0.329-0.059-0.527v-0.2c0-0.199 0.020-0.374 0.059-0.525 0.039-0.153 0.095-0.281 0.168-0.383 0.075-0.104 0.165-0.182 0.271-0.234 0.106-0.054 0.226-0.081 0.361-0.081s0.256 0.027 0.364 0.081c0.107 0.052 0.198 0.13 0.271 0.234 0.075 0.103 0.131 0.23 0.168 0.383 0.039 0.151 0.059 0.326 0.059 0.525z"></path>
</svg>
