<!-- Generated by IcoMoon.io -->
<svg version="1.1" xmlns="http://www.w3.org/2000/svg" width="104" height="56" viewBox="0 0 104 56">
<title>customers-client-6</title>
<path d="M53.529 27.443c-0.444-0.591-0.656-1.289-0.606-1.992v-2.888c0-0.885 0.201-1.558 0.603-2.018s1.092-0.689 2.070-0.687c0.919 0 1.572 0.196 1.958 0.588 0.421 0.5 0.626 1.111 0.579 1.728v0.679h-1.645v-0.687c0.006-0.225-0.010-0.45-0.048-0.673-0.024-0.152-0.106-0.293-0.235-0.4-0.169-0.115-0.382-0.17-0.596-0.156-0.225-0.014-0.449 0.044-0.626 0.164-0.143 0.118-0.239 0.272-0.272 0.441-0.047 0.236-0.069 0.475-0.065 0.714v3.505c-0.026 0.338 0.047 0.676 0.211 0.984 0.082 0.104 0.195 0.187 0.328 0.239s0.28 0.071 0.424 0.055c0.211 0.015 0.42-0.042 0.582-0.159 0.134-0.115 0.22-0.265 0.245-0.426 0.038-0.233 0.056-0.467 0.051-0.702v-0.711h1.645v0.649c0.046 0.643-0.154 1.281-0.569 1.816-0.378 0.429-1.021 0.643-1.968 0.643s-1.662-0.229-2.067-0.705z"></path>
<path d="M60.376 27.473c-0.415-0.449-0.623-1.105-0.623-1.971v-3.038c0-0.858 0.208-1.507 0.623-1.948s1.11-0.66 2.084-0.658c0.967 0 1.658 0.219 2.073 0.658 0.415 0.441 0.627 1.090 0.627 1.948v3.038c0 0.858-0.211 1.516-0.633 1.968s-1.11 0.679-2.067 0.679-1.665-0.229-2.084-0.676zM63.226 26.744c0.149-0.281 0.217-0.59 0.197-0.899v-3.72c0.019-0.303-0.048-0.606-0.194-0.881-0.083-0.106-0.2-0.19-0.336-0.242s-0.286-0.070-0.434-0.052c-0.148-0.018-0.298 0-0.435 0.052s-0.253 0.136-0.338 0.242c-0.15 0.275-0.218 0.578-0.197 0.881v3.737c-0.021 0.309 0.047 0.618 0.197 0.899 0.096 0.095 0.214 0.171 0.347 0.223s0.277 0.079 0.423 0.079 0.29-0.027 0.423-0.079c0.133-0.052 0.251-0.128 0.347-0.223v-0.018z"></path>
<path d="M67.138 19.946h1.771l1.331 5.605 1.362-5.605h1.723l0.174 8.091h-1.273l-0.136-5.623-1.314 5.623h-1.021l-1.362-5.643-0.126 5.643h-1.287l0.16-8.091z"></path>
<path d="M75.483 19.946h2.758c1.589 0 2.383 0.766 2.383 2.297 0 1.467-0.836 2.199-2.509 2.197h-0.94v3.596h-1.702l0.010-8.091zM77.839 23.404c0.168 0.018 0.339 0.005 0.501-0.039s0.31-0.118 0.436-0.217c0.195-0.273 0.281-0.594 0.245-0.914 0.009-0.247-0.018-0.494-0.082-0.734-0.024-0.081-0.067-0.156-0.125-0.222s-0.132-0.121-0.215-0.163c-0.236-0.098-0.497-0.142-0.759-0.129h-0.661v2.418h0.661z"></path>
<path d="M83.079 19.946h1.828l1.876 8.091h-1.587l-0.371-1.866h-1.631l-0.381 1.866h-1.61l1.876-8.091zM84.641 25.234l-0.637-3.396-0.637 3.396h1.273z"></path>
<path d="M88.298 19.946h1.192l2.281 4.615v-4.615h1.413v8.091h-1.134l-2.295-4.818v4.818h-1.461l0.003-8.091z"></path>
<path d="M96.493 24.952l-1.896-4.994h1.597l1.158 3.208 1.086-3.208h1.563l-1.873 4.994v3.085h-1.634v-3.085z"></path>
<path d="M56.158 31.574v0.423h-1.389v3.287h-0.582v-3.287h-1.396v-0.423h3.367z"></path>
<path d="M60.512 35.284h-0.449c-0.046 0.003-0.091-0.010-0.126-0.035-0.034-0.021-0.060-0.051-0.075-0.085l-0.402-0.881h-1.927l-0.402 0.881c-0.011 0.037-0.032 0.071-0.061 0.1-0.036 0.025-0.081 0.037-0.126 0.035h-0.449l1.702-3.71h0.592l1.723 3.696zM57.693 33.907h1.607l-0.681-1.51c-0.050-0.114-0.092-0.231-0.126-0.35-0.024 0.070-0.044 0.138-0.065 0.197l-0.061 0.156-0.674 1.507z"></path>
<path d="M63.447 34.92c0.107 0.005 0.213 0.005 0.32 0 0.092-0.008 0.183-0.023 0.272-0.044 0.083-0.018 0.165-0.040 0.245-0.068 0.075-0.026 0.15-0.059 0.228-0.091v-0.834h-0.681c-0.017 0.001-0.034-0.001-0.049-0.006s-0.030-0.013-0.042-0.023c-0.011-0.008-0.020-0.019-0.026-0.030s-0.009-0.024-0.008-0.037v-0.285h1.321v1.422c-0.108 0.067-0.222 0.126-0.34 0.176-0.121 0.052-0.248 0.094-0.378 0.126-0.139 0.035-0.282 0.061-0.426 0.076-0.165 0.016-0.331 0.024-0.497 0.024-0.294 0.002-0.585-0.045-0.858-0.138-0.255-0.088-0.486-0.22-0.681-0.388-0.19-0.169-0.339-0.369-0.439-0.588-0.107-0.246-0.16-0.507-0.157-0.77-0.004-0.265 0.048-0.527 0.153-0.776 0.098-0.22 0.247-0.42 0.439-0.588 0.194-0.167 0.426-0.298 0.681-0.385 0.292-0.095 0.601-0.141 0.913-0.138 0.158-0 0.317 0.011 0.473 0.032 0.138 0.019 0.274 0.051 0.405 0.094 0.119 0.039 0.233 0.088 0.34 0.147 0.104 0.058 0.203 0.123 0.296 0.194l-0.163 0.229c-0.013 0.021-0.032 0.038-0.055 0.051s-0.050 0.019-0.077 0.020c-0.038-0.001-0.074-0.011-0.106-0.029-0.051-0.024-0.105-0.053-0.167-0.088-0.072-0.039-0.149-0.073-0.228-0.1-0.102-0.035-0.206-0.063-0.313-0.082-0.143-0.023-0.287-0.034-0.432-0.032-0.225-0.002-0.448 0.033-0.657 0.103-0.189 0.066-0.36 0.166-0.5 0.294-0.141 0.133-0.249 0.29-0.317 0.461-0.152 0.402-0.152 0.835 0 1.237 0.074 0.175 0.19 0.334 0.34 0.467 0.14 0.127 0.309 0.227 0.497 0.294 0.217 0.064 0.446 0.089 0.674 0.074z"></path>
<path d="M68.874 34.861h1.859v0.423h-2.428v-3.711h0.582l-0.014 3.287z"></path>
<path d="M72.667 35.284h-0.582v-3.711h0.582v3.711z"></path>
<path d="M74.833 31.591c0.035 0.017 0.065 0.040 0.089 0.068l2.489 2.797c-0.003-0.044-0.003-0.088 0-0.132 0-0.041 0-0.082 0-0.12v-2.644h0.507v3.725h-0.293c-0.043 0.003-0.087-0.004-0.126-0.021-0.035-0.018-0.067-0.042-0.092-0.070l-2.485-2.794c0 0.044 0 0.085 0 0.126s0 0.079 0 0.115v2.644h-0.487v-3.711h0.303c0.033 0 0.065 0.006 0.095 0.018z"></path>
<path d="M82.204 31.574v0.408h-2.063v1.225h1.672v0.394h-1.672v1.266h2.063v0.408h-2.662v-3.702h2.662z"></path>
<path d="M21.195 8.659l25.852 6.334v22.196l-25.852-6.331v-22.198zM19.537 6.767v25.169l29.165 7.148v-25.166l-29.165-7.151z"></path>
<path d="M35.168 50.767l-29.168-7.154v-25.166l29.168 7.151v25.169z"></path>
<path d="M20.020 8.374l25.515 6.255-10.851 9.366-25.518-6.258 10.854-9.363zM19.537 6.767l-13.537 11.681 29.168 7.151 13.534-11.681-29.165-7.151z"></path>
<path d="M36.809 49.351l11.893-10.265-11.893-2.917v13.182z"></path>
</svg>
