<svg xmlns="http://www.w3.org/2000/svg" aria-hidden="true" style="position:absolute;width:0;height:0;overflow:hidden">
  <defs>
    <symbol id="benefits-antenna" viewBox="0 0 64 64">
      <path fill="#2e2f42"
        d="M61.546 44.195 44.66 27.185l1.874-9.231c.484.189.998.288 1.517.291h.013a4.319 4.319 0 1 0-4.018-2.871l-9.92 1.211L17.945.319a1.063 1.063 0 0 0-.753-.32c-.28.001-.548.113-.747.31L13.42 3.317a1.067 1.067 0 0 0 0 1.508l1.628 1.651a29.885 29.885 0 0 0 5.039 35.326.99.99 0 0 0 .292.195 6.276 6.276 0 0 0-.105 1.094v12.373h-12.8a5.339 5.339 0 0 0-5.333 5.333v2.133c0 .589.478 1.067 1.067 1.067h49.067c.589 0 1.067-.478 1.067-1.067v-2.133a5.34 5.34 0 0 0-5.333-5.333h-12.8V49.98c2.005.421 4.048.635 6.097.64a29.697 29.697 0 0 0 14.08-3.567l1.636 1.646c.199.203.469.318.753.32.28-.002.548-.113.747-.31l3.025-3.008a1.067 1.067 0 0 0 0-1.508zM46.56 12.466a2.134 2.134 0 1 1 1.504 3.646h-.006a2.133 2.133 0 0 1-1.493-3.646h-.004zm-2.511 7.009-1.197 5.891-2.351-2.365 3.548-3.526zm-1.212-1.803-3.84 3.818-2.971-2.987 6.811-.831zM48.008 57.6a3.2 3.2 0 0 1 3.2 3.2v1.067H4.275V60.8a3.2 3.2 0 0 1 3.2-3.2h40.533zm-14.933-4.267v2.133H22.408v-2.133h10.667zM22.408 51.2v-8.107c0-2.588 2.393-4.693 5.333-4.693s5.333 2.106 5.333 4.693V51.2H22.407zm12.8-3.392v-4.715c0-3.764-3.349-6.827-7.467-6.827a7.6 7.6 0 0 0-6.562 3.572 27.739 27.739 0 0 1-4.557-31.774l37.204 37.417a27.643 27.643 0 0 1-18.618 2.326zm22.578-1.367L15.672 4.079l1.509-1.504 15.87 15.96c.008 0 .012.014.019.019l26.229 26.383-1.514 1.504z"
        style="fill:var(--color1, #2e2f42)" />
      <path fill="#4d5ae5"
        d="M27.751 40.533h-.01a3.2 3.2 0 0 0-.01 6.4h.01a3.2 3.2 0 0 0 .01-6.4zm.747 3.957a1.066 1.066 0 1 1-.756-1.823 1.067 1.067 0 0 1 .747 1.823h.01z"
        style="fill:var(--color2, #4d5ae5)" />
    </symbol>
    <symbol id="benefits-clock" viewBox="0 0 64 64">
      <path fill="#2e2f42"
        d="M62.593 30.602C62.59 13.697 48.882-.004 31.977 0S1.371 13.711 1.375 30.616a30.609 30.609 0 0 0 21.299 29.152c.121.038.247.058.374.057.241-.001.477-.065.685-.188.27-.16.472-.414.566-.713l7.73-24.5a3.826 3.826 0 0 0-.04-7.653 3.763 3.763 0 0 0-1.64.383L20.137 16.941a1.276 1.276 0 0 0-1.803 1.804L28.54 28.963a3.753 3.753 0 0 0 1.073 4.618l-7.365 23.346C7.692 51.565.239 35.419 5.601 20.864S27.109-1.145 41.664 4.217C56.22 9.579 63.673 25.725 58.311 40.28a28.092 28.092 0 0 1-14.924 15.947l-.796-3.748a1.275 1.275 0 0 0-2.097-.687l-7.674 6.851a1.276 1.276 0 0 0 .461 2.169l9.797 3.127a1.275 1.275 0 0 0 1.638-1.479l-.782-3.678a30.51 30.51 0 0 0 18.658-28.178zm-30.609-1.275a1.275 1.275 0 1 1 0 2.55 1.275 1.275 0 0 1 0-2.55zm4.201 29.728 4.368-3.897 1.206 5.681-5.574-1.784z"
        style="fill:var(--color1, #2e2f42)" />
      <path fill="#4d5ae5"
        d="M30.709 6.37v2.551a1.275 1.275 0 1 0 2.55 0V6.37a1.275 1.275 0 0 0-2.55 0zM7.752 29.327a1.275 1.275 0 1 0 0 2.55h2.551a1.275 1.275 0 1 0 0-2.55H7.752zM56.216 31.878a1.275 1.275 0 1 0 0-2.55h-2.551a1.275 1.275 0 0 0 0 2.55h2.551z"
        style="fill:var(--color2, #4d5ae5)" />
    </symbol>
    <symbol id="benefits-diagram" viewBox="0 0 64 64">
      <path fill="#4d5ae5"
        d="M29.851 29.929h2.132v9.595h-2.132v-9.595zM38.38 34.194h2.132v5.331H38.38v-5.331zM21.322 37.392h2.132v2.132h-2.132v-2.132zM14.925 36.326h2.132v3.198h-2.132v-3.198z"
        style="fill:var(--color2, #4d5ae5)" />
      <path fill="#2e2f42"
        d="M3.198 56.582h51.173a3.198 3.198 0 0 0 3.198-3.198V49.12a3.198 3.198 0 0 0-3.198-3.198h-1.066V19.335l6.056-5.737a3.216 3.216 0 1 0-1.494-1.526l-4.563 4.325v-2.46a3.198 3.198 0 0 0-3.198-3.198H7.462a3.198 3.198 0 0 0-3.198 3.198V45.92H3.198A3.198 3.198 0 0 0 0 49.118v4.264a3.198 3.198 0 0 0 3.198 3.198zm57.57-46.909a1.066 1.066 0 1 1 0 2.131 1.066 1.066 0 0 1 0-2.131zM6.397 13.938c0-.589.477-1.066 1.066-1.066h42.644c.589 0 1.066.477 1.066 1.066v4.477l-2.132 2.026V16.07c0-.589-.477-1.066-1.066-1.066H9.595c-.589 0-1.066.477-1.066 1.066v26.653c0 .589.477 1.066 1.066 1.066h38.38c.589 0 1.066-.477 1.066-1.066V23.374l2.132-2.02v24.567H6.396V13.938zm9.595 13.859a3.197 3.197 0 1 0 2.214 5.496l3.706 1.859c.43.215.953.114 1.273-.245l7.878-8.863 7.744 5.803c.415.311.995.278 1.372-.079l6.73-6.375v16.262H10.661v-24.52h36.248v5.321l-7.543 7.143-7.809-5.854a1.066 1.066 0 0 0-1.436.144l-7.986 8.985-2.985-1.493c.022-.128.035-.257.041-.387a3.198 3.198 0 0 0-3.198-3.198zm1.066 3.198a1.066 1.066 0 1 1-2.131 0 1.066 1.066 0 0 1 2.131 0zm6.396 17.058h10.661v1.066c0 .589-.477 1.066-1.066 1.066H24.52a1.066 1.066 0 0 1-1.066-1.066v-1.066zM2.132 49.119c0-.589.477-1.066 1.066-1.066h18.124v1.066a3.198 3.198 0 0 0 3.198 3.198h8.529a3.198 3.198 0 0 0 3.198-3.198v-1.066h18.124c.589 0 1.066.477 1.066 1.066v4.264c0 .589-.477 1.066-1.066 1.066H3.198a1.066 1.066 0 0 1-1.066-1.066v-4.264z"
        style="fill:var(--color1, #2e2f42)" />
    </symbol>
    <symbol id="benefits-astronaut" viewBox="0 0 64 64">
      <path fill="#4d5ae5"
        d="M63.948 9.048a1.067 1.067 0 0 0-.861-.725l-3.821-.556-1.71-3.462c-.358-.73-1.554-.73-1.913 0l-1.71 3.462-3.821.556a1.066 1.066 0 0 0-.592 1.818l2.766 2.696-.653 3.806c-.068.4.096.804.423 1.043.332.241.765.271 1.124.081l3.418-1.797 3.418 1.797a1.072 1.072 0 0 0 1.124-.081c.328-.239.493-.643.423-1.043l-.653-3.806 2.766-2.696a1.07 1.07 0 0 0 .27-1.093zm-4.926 2.654a1.064 1.064 0 0 0-.306.944l.382 2.228-2.001-1.052a1.066 1.066 0 0 0-.994 0l-2.001 1.052.382-2.228a1.068 1.068 0 0 0-.306-.944l-1.62-1.579 2.238-.325c.348-.05.648-.269.803-.584L56.6 7.187l1.001 2.027c.156.315.456.533.803.584l2.238.325-1.618 1.579zM52.267 41.044h-2.133v2.133h2.133v-2.133zM52.267 45.311h-2.133v2.133h2.133v-2.133zM54.4 43.178h-2.133v2.133H54.4v-2.133zM50.134 43.178h-2.133v2.133h2.133v-2.133zM44.8 52.778h-2.133v2.133H44.8v-2.133zM44.8 57.045h-2.133v2.133H44.8v-2.133zM46.934 54.911h-2.133v2.133h2.133v-2.133zM42.667 54.911h-2.133v2.133h2.133v-2.133zM32 48.511h-2.133v2.133H32v-2.133zM32 52.778h-2.133v2.133H32v-2.133zM34.133 50.645H32v2.133h2.133v-2.133zM29.867 50.645h-2.133v2.133h2.133v-2.133zM11.733 12.244H9.6v2.133h2.133v-2.133zM11.733 16.511H9.6v2.133h2.133v-2.133zM13.866 14.377h-2.133v2.133h2.133v-2.133zM9.6 14.377H7.467v2.133H9.6v-2.133z"
        style="fill:var(--color2, #4d5ae5)" />
      <path fill="#2e2f42"
        d="M49.429 28.319a3.545 3.545 0 0 0-2.377-1.409 3.55 3.55 0 0 0-2.68.704l-2.505 1.92-3.795 2.834-2.716-1.082c4.843-2.173 8.227-7.017 8.227-12.64 0-7.646-6.245-13.867-13.922-13.867S15.739 11 15.739 18.646c0 2.771.829 5.348 2.24 7.517l-5.528-.048h-.01c-.017 0-.031.009-.047.01a1.036 1.036 0 0 0-.31.062c-.026.01-.052.015-.077.027-.013.005-.026.006-.038.013L5.503 29.42l-.002.001-3.787 1.821a.881.881 0 0 0-.126.07 3.562 3.562 0 0 0 .915 6.369 3.565 3.565 0 0 0 2.757-.257l2.776-1.476 4.528-2.338 2.714-.016L4.395 44.425l-.003.002-2.677 2.667a3.3 3.3 0 0 0-.98 2.355c0 .89.348 1.727.98 2.357.65.646 1.504.971 2.358.971a3.34 3.34 0 0 0 2.361-.971l2.628-2.618 3.482-2.599 1.802 1.794-3.523 3.508-.003.002-2.677 2.667a3.296 3.296 0 0 0-.98 2.355c0 .89.348 1.727.98 2.357.65.646 1.505.971 2.36.971s1.71-.324 2.361-.971l6.963-6.933.002-.003 2.019-2-.008-.008c.013-.013.031-.017.044-.031l10.332-11.316 6.942.988a.947.947 0 0 0 .524-.066c.035-.013.066-.03.099-.047.038-.019.079-.03.115-.054l6.427-4.267c.023-.016.036-.042.059-.059.026-.02.058-.029.081-.051l2.543-2.382a3.56 3.56 0 0 0 .424-4.724zM4.261 35.54c-.347.186-.74.223-1.117.103a1.428 1.428 0 0 1-.424-2.52l2.627-1.264.898 2.625-1.984 1.055zm6.994-3.655-3.097 1.6-.878-2.567 4.054-2.001-.079 2.968zm30.199-13.241c0 1.837-.438 3.569-1.198 5.119l-8.363-3.798a3.724 3.724 0 0 0-1.576-2.776l2.928-9.721c4.755 1.513 8.209 5.949 8.209 11.176zm-23.578 0c0-6.469 5.289-11.733 11.789-11.733.506 0 1.001.043 1.49.104l-2.864 9.507c-.038-.001-.075-.012-.114-.012-2.065 0-3.745 1.675-3.745 3.733s1.68 3.733 3.745 3.733c1.389 0 2.589-.767 3.236-1.889l7.725 3.509c-2.149 2.893-5.59 4.78-9.473 4.78-6.5 0-11.789-5.264-11.789-11.734zm11.913 1.6c0 .882-.723 1.6-1.612 1.6s-1.612-.718-1.612-1.6c0-.882.723-1.6 1.612-1.6s1.612.718 1.612 1.6zM4.93 50.292a1.217 1.217 0 0 1-1.709.001 1.189 1.189 0 0 1 0-1.689l1.924-1.917 1.702 1.695-1.918 1.909zm6.427 7.467a1.217 1.217 0 0 1-1.71.001 1.189 1.189 0 0 1 0-1.689l1.925-1.918 1.704 1.695-1.919 1.91zm6.964-6.937-.003.002-3.53 3.52-1.704-1.695 3.526-3.51v-.001l.003-.002c.08-.08.13-.176.179-.271.014-.028.041-.051.052-.08.033-.082.038-.171.051-.257.006-.049.028-.095.028-.145 0-.072-.026-.141-.041-.211-.013-.064-.013-.129-.037-.191-.041-.1-.11-.189-.182-.275-.02-.023-.028-.053-.05-.076h-.001l-.002-.004-3.214-3.2c-.034-.034-.078-.048-.116-.077a.989.989 0 0 0-.174-.115.987.987 0 0 0-.187-.065 1.013 1.013 0 0 0-.206-.039 1.02 1.02 0 0 0-.191.01.982.982 0 0 0-.208.041.934.934 0 0 0-.189.09c-.04.022-.084.03-.122.058l-3.547 2.648-1.802-1.794 4.798-4.772 8.721 8.577-1.855 1.838zm13.637-14.034c-.031-.004-.06.008-.091.005a1.046 1.046 0 0 0-.23.014.983.983 0 0 0-.369.137.99.99 0 0 0-.166.123c-.026.022-.056.033-.08.059l-9.396 10.291-8.656-8.513 5.666-5.636a1.067 1.067 0 0 0-.76-1.822v-.001l-4.437.027.056-3.215 6.208.053a13.897 13.897 0 0 0 9.963 4.202c.875 0 1.728-.091 2.559-.245.08.064.159.129.259.17l4.819 1.92.305 1.517.356 1.771-6.005-.854zm8.083.357-.626-3.116 2.893-2.16 1.893 2.513-4.16 2.763zm7.507-5.662-1.676 1.57-1.862-2.473 1.663-1.275c.31-.239.702-.336 1.086-.286.386.054.727.256.96.569a1.428 1.428 0 0 1-.171 1.894z"
        style="fill:var(--color1, #2e2f42)" />
      <path fill="#2e2f42"
        d="m27.204 37.088-4.286-4.267a1.065 1.065 0 0 0-1.505 0l-4.285 4.267a1.07 1.07 0 0 0 0 1.512l4.285 4.267a1.065 1.065 0 0 0 1.505 0l4.286-4.267a1.067 1.067 0 0 0 0-1.512zm-5.038 3.518-2.773-2.762 2.773-2.762 2.774 2.762-2.774 2.762zM34.328 10.142l-.515 2.072c.142.035 3.475.903 3.475 4.298h2.133c0-4.034-3.331-5.931-5.093-6.369zM39.422 18.644h-2.133v2.134h2.133v-2.134z"
        style="fill:var(--color1, #2e2f42)" />
    </symbol>
    <symbol id="instagram" viewBox="0 0 16 16">
      <path
        d="M15.984 4.704c-.037-.85-.175-1.435-.372-1.941a3.904 3.904 0 0 0-.925-1.419 3.944 3.944 0 0 0-1.416-.922C12.762.225 12.18.088 11.33.05 10.473.009 10.202 0 8.029 0S5.585.009 4.731.047c-.85.037-1.435.175-1.941.372a3.904 3.904 0 0 0-1.419.925c-.406.4-.722.885-.922 1.416-.197.51-.334 1.091-.372 1.941-.041.856-.05 1.128-.05 3.301s.009 2.444.047 3.298c.037.85.175 1.435.372 1.941.203.538.519 1.019.925 1.419.4.406.885.722 1.416.922.51.197 1.091.335 1.941.372.853.038 1.125.047 3.298.047s2.444-.009 3.298-.047c.85-.037 1.435-.175 1.941-.372a4.095 4.095 0 0 0 2.341-2.341c.197-.509.334-1.091.372-1.941.038-.853.047-1.125.047-3.298s-.003-2.444-.041-3.298zm-1.441 6.532c-.034.781-.166 1.203-.275 1.485a2.655 2.655 0 0 1-1.519 1.519c-.281.109-.706.241-1.485.275-.844.038-1.097.047-3.232.047s-2.391-.009-3.232-.047c-.781-.034-1.203-.166-1.485-.275a2.453 2.453 0 0 1-.919-.597 2.477 2.477 0 0 1-.597-.919c-.109-.281-.241-.706-.275-1.485-.038-.844-.047-1.097-.047-3.232s.009-2.391.047-3.232c.034-.781.166-1.203.275-1.485.128-.347.331-.663.6-.919.259-.266.572-.469.919-.597.281-.109.706-.241 1.485-.275.844-.037 1.097-.047 3.232-.047 2.138 0 2.391.009 3.232.047.781.034 1.203.166 1.485.275.347.128.663.331.919.597.266.259.469.572.597.919.109.281.241.706.275 1.485.037.844.047 1.097.047 3.232s-.009 2.385-.047 3.229z" />
      <path
        d="M8.03 3.891a4.111 4.111 0 0 0 0 8.22 4.111 4.111 0 0 0 0-8.22zm0 6.777a2.667 2.667 0 1 1 .001-5.333 2.667 2.667 0 0 1-.001 5.333zM13.262 3.729a.96.96 0 1 1-1.92 0 .96.96 0 0 1 1.92 0z" />
    </symbol>
    <symbol id="twitter" viewBox="0 0 16 16">
      <path
        d="M16 3.039a6.839 6.839 0 0 1-1.89.518 3.262 3.262 0 0 0 1.443-1.813 6.555 6.555 0 0 1-2.08.794 3.28 3.28 0 0 0-5.674 2.243c0 .26.022.51.076.748a9.284 9.284 0 0 1-6.761-3.431 3.285 3.285 0 0 0 1.008 4.384A3.24 3.24 0 0 1 .64 6.078v.036a3.295 3.295 0 0 0 2.628 3.223 3.274 3.274 0 0 1-.86.108 2.9 2.9 0 0 1-.621-.056 3.311 3.311 0 0 0 3.065 2.285 6.59 6.59 0 0 1-4.067 1.399c-.269 0-.527-.012-.785-.045A9.234 9.234 0 0 0 5.032 14.5c6.036 0 9.336-5 9.336-9.334 0-.145-.005-.285-.012-.424A6.544 6.544 0 0 0 16 3.039z" />
    </symbol>
    <symbol id="facebook" viewBox="0 0 16 16">
      <path
        d="M10.665 2.657h1.461V.113A18.755 18.755 0 0 0 9.998 0C7.892 0 6.449 1.325 6.449 3.759V6H4.125v2.844h2.324V16h2.849V8.845h2.23l.354-2.844H9.297V4.042c.001-.822.222-1.385 1.367-1.385z" />
    </symbol>
    <symbol id="linkedin" viewBox="0 0 16 16">
      <path
        d="M15.996 16v-.001H16v-5.868c0-2.871-.618-5.082-3.974-5.082-1.613 0-2.696.885-3.138 1.725h-.047V5.317H5.659v10.682h3.313V10.71c0-1.393.264-2.739 1.989-2.739 1.699 0 1.725 1.589 1.725 2.829v5.201h3.31zM.264 5.318h3.317V16H.264V5.318zM1.921 0C.86 0 0 .861 0 1.921S.861 3.86 1.921 3.86c1.061 0 1.921-.879 1.921-1.939S2.981 0 1.921 0z" />
    </symbol>
    <symbol id="customers-client-1" viewBox="0 0 104 56">
      <path
        d="m38 7 7.008 6.676L32 13.668V46.06h34V33.675l7 6.669V6.999H38zm27.692 25.892-19.87-18.93h19.87v18.93zm-6.169 8.431H37.38V19.538h1.565v20.31h20.578v1.475zM41.796 52.061l-.825-1.697h-.681l1.196 2.246v1.309h.618V52.61l1.196-2.246h-.679l-.825 1.697zm3.042-1.697h.147l1.343 3.555h-.644l-.288-.833H44.02l-.287.833h-.642l1.338-3.555h.41zm-.652 2.237h1.041l-.521-1.508-.52 1.508zm4.296-.589a4.597 4.597 0 0 1-.077-.099 1.8 1.8 0 0 1-.212-.349.868.868 0 0 1-.076-.352c0-.186.038-.345.115-.479s.185-.236.325-.308c.14-.073.304-.11.491-.11.181 0 .336.037.466.11a.768.768 0 0 1 .349.985.92.92 0 0 1-.168.254 1.715 1.715 0 0 1-.249.217l-.247.18.704.831a1.44 1.44 0 0 0 .153-.664h.508c0 .173-.017.336-.051.491a1.488 1.488 0 0 1-.26.587l.521.615h-.681l-.207-.243a1.378 1.378 0 0 1-.365.199 1.616 1.616 0 0 1-.552.093c-.236 0-.44-.043-.613-.129s-.306-.205-.4-.357a.973.973 0 0 1-.139-.52c0-.145.03-.272.09-.381a1.18 1.18 0 0 1 .247-.308c.096-.087.206-.175.329-.262zm.292.357-.074.053a.917.917 0 0 0-.193.203.603.603 0 0 0-.101.318c0 .104.022.199.066.283a.522.522 0 0 0 .198.203.65.65 0 0 0 .32.073.91.91 0 0 0 .574-.202l-.791-.93zm.14-.649.218-.147a.783.783 0 0 0 .22-.2.444.444 0 0 0 .066-.249c0-.085-.033-.163-.098-.234s-.157-.107-.276-.107a.363.363 0 0 0-.339.21.497.497 0 0 0 .014.434c.038.077.089.157.154.242l.041.052zm6.219 1.042h-.61a1.104 1.104 0 0 1-.112.393.554.554 0 0 1-.246.242.929.929 0 0 1-.422.083c-.143 0-.266-.028-.369-.085s-.187-.137-.254-.242a1.183 1.183 0 0 1-.146-.374 2.367 2.367 0 0 1-.046-.488v-.3c0-.189.017-.356.051-.503.036-.148.089-.273.159-.374s.157-.177.261-.229a.809.809 0 0 1 .366-.078.85.85 0 0 1 .415.088c.106.057.186.14.239.249.055.109.091.24.107.393h.61a1.522 1.522 0 0 0-.2-.632c-.107-.184-.259-.328-.454-.432s-.434-.156-.718-.156c-.223 0-.424.039-.603.117a1.267 1.267 0 0 0-.456.339 1.52 1.52 0 0 0-.293.53c-.067.207-.1.438-.1.693v.295c0 .255.033.487.098.693.067.207.163.383.288.53.125.145.276.257.452.337.176.078.374.117.593.117.287 0 .53-.052.73-.156s.356-.247.466-.427c.111-.182.176-.39.195-.623zm3.391-.523v-.195c0-.269-.036-.509-.107-.72a1.556 1.556 0 0 0-.3-.544 1.281 1.281 0 0 0-.466-.344 1.47 1.47 0 0 0-.601-.12c-.218 0-.417.04-.598.12a1.298 1.298 0 0 0-.466.344c-.13.15-.231.331-.303.544a2.233 2.233 0 0 0-.107.72v.195c0 .269.036.51.107.723.073.213.176.395.308.544s.287.265.466.344c.181.078.38.117.598.117.22 0 .42-.039.601-.117.181-.08.335-.195.464-.344.13-.15.23-.331.3-.544s.105-.454.105-.723zm-.612-.2v.2c0 .199-.02.374-.059.527a1.157 1.157 0 0 1-.166.388.733.733 0 0 1-.269.237.815.815 0 0 1-.364.078.808.808 0 0 1-.361-.078.77.77 0 0 1-.273-.237c-.075-.106-.132-.235-.171-.388s-.059-.329-.059-.527v-.2c0-.199.02-.374.059-.525.039-.153.095-.281.168-.383a.728.728 0 0 1 .271-.234c.106-.054.226-.081.361-.081s.256.027.364.081c.107.052.198.13.271.234.075.103.131.23.168.383.039.151.059.326.059.525z" />
    </symbol>
    <symbol id="customers-client-2" viewBox="0 0 104 56">
      <path
        d="M50.114 5.935h-.137c-.21-.013-.42-.018-.63-.023h-.455c-.397 0-.802.01-1.204.031a.69.69 0 0 0-.091 0 28.255 28.255 0 0 0-10.516 2.683l-.433.209v22.141l1.012-.343c.888-.305 1.834-.58 2.813-.834a34.394 34.394 0 0 1 8.095-1.076v2.909c-.362.003-.713.013-1.065.031h-.084a32.3 32.3 0 0 0-6.228.956 31.638 31.638 0 0 0-7.42 2.891V7.113a29.738 29.738 0 0 1 7.784-3.166 29.771 29.771 0 0 1 7.336-.946h.427a30.31 30.31 0 0 1 1.477.071c1.233.087 2.456.281 3.655.582v2.863a22.655 22.655 0 0 0-3.542-.534l-.073-.006c-.247-.021-.494-.042-.724-.042zm5.039 2.926a26.09 26.09 0 0 0 1.958.071 31.51 31.51 0 0 0 7.713-.989 31.756 31.756 0 0 0 7.417-2.894V32.94a29.826 29.826 0 0 1-7.787 3.166 29.96 29.96 0 0 1-7.336.944 22.394 22.394 0 0 1-5.565-.656V8.323c.43.099.873.191 1.323.267.739.125 1.518.216 2.277.272zm14.194.217-1.012.341a44.2 44.2 0 0 1-2.813.842 34.258 34.258 0 0 1-8.406 1.078c-.66 0-1.267-.018-1.854-.056l-.807-.053v22.777l.693.061a22.81 22.81 0 0 0 1.973.084 26.846 26.846 0 0 0 6.62-.857 27.735 27.735 0 0 0 5.173-1.859l.433-.209V9.078zM35.737 45.212a1.495 1.495 0 0 0-1.126-.455 1.661 1.661 0 0 0-.65.122 1.455 1.455 0 0 0-.832.842c-.079.2-.119.413-.116.628v3.794c-.009.267.042.533.149.778.09.194.219.368.379.509.152.128.33.22.521.27.184.052.375.078.567.079.211.002.42-.043.612-.132a1.598 1.598 0 0 0 .959-1.465v-.425h-.992v.338a.888.888 0 0 1-.058.338.6.6 0 0 1-.144.214.732.732 0 0 1-.414.145.504.504 0 0 1-.466-.204.903.903 0 0 1-.132-.509v-3.537a1.208 1.208 0 0 1 .121-.567c.052-.08.124-.144.21-.185s.181-.056.276-.044a.535.535 0 0 1 .443.214.804.804 0 0 1 .164.509v.328h.982v-.386a1.776 1.776 0 0 0-.122-.664 1.556 1.556 0 0 0-.331-.534zM41.629 45.169a1.767 1.767 0 0 0-1.128-.417 1.736 1.736 0 0 0-.592.107c-.193.069-.37.174-.524.31a1.577 1.577 0 0 0-.385.532c-.1.232-.149.482-.144.735v3.639c-.007.256.042.51.144.745.09.196.221.369.385.508.152.141.33.25.524.321.19.07.39.106.592.107a1.712 1.712 0 0 0 1.128-.428c.158-.142.286-.315.374-.508a1.75 1.75 0 0 0 .144-.745v-3.639a1.77 1.77 0 0 0-.144-.735 1.666 1.666 0 0 0-.374-.532zm-.463 4.905a.663.663 0 0 1-.197.527.725.725 0 0 1-.934 0 .648.648 0 0 1-.197-.527v-3.639a.663.663 0 0 1 .197-.527.725.725 0 0 1 .934 0 .648.648 0 0 1 .197.527v3.639zM49.367 51.699V44.81h-.954l-1.252 3.647h-.018l-1.262-3.647h-.944v6.889h.984v-4.191h.018l.964 2.962h.491l.971-2.962h.018v4.191h.984zM54.958 45.294a1.368 1.368 0 0 0-.557-.376 2.183 2.183 0 0 0-.713-.107h-1.462V51.7h.981v-2.69h.506c.306.014.611-.051.885-.188a1.44 1.44 0 0 0 .539-.526c.113-.183.19-.387.225-.6.039-.259.056-.521.053-.783a3.919 3.919 0 0 0-.096-.984 1.472 1.472 0 0 0-.362-.633zm-.506 2.1a.863.863 0 0 1-.091.359.554.554 0 0 1-.253.242 1.01 1.01 0 0 1-.463.087h-.448V45.74h.506a.954.954 0 0 1 .443.086.55.55 0 0 1 .23.254 1 1 0 0 1 .086.384v.458c0 .16.01.325 0 .473h-.01zM59.608 44.811h-.805L57.285 51.7h.981l.288-1.48h1.338l.288 1.48h.982l-1.556-6.889zm-.906 4.47.483-2.497h.018l.481 2.497h-.982zM65.95 48.961h-.018l-1.482-4.15h-.944V51.7h.981v-4.142h.02l1.5 4.142h.923v-6.889h-.981v4.15zM71.948 44.811l-.789 2.739h-.02l-.789-2.739h-1.04l1.348 3.977V51.7h.982v-2.912l1.348-3.977h-1.04zM33 53.645h.473v1.327h.321v-1.327h.471v-.272H33v.272zM36.977 53.372l-.62 1.6h.342l.132-.364h.637l.137.364h.349l-.635-1.6h-.342zm-.051.967.218-.592.217.592h-.435zM40.908 54.382h.369v.206a.612.612 0 0 1-.379.135.406.406 0 0 1-.339-.153.667.667 0 0 1-.119-.417c0-.356.154-.534.46-.534a.337.337 0 0 1 .362.254l.316-.061c-.068-.313-.293-.47-.678-.47a.8.8 0 0 0-.559.206.785.785 0 0 0-.231.615.874.874 0 0 0 .205.6.764.764 0 0 0 .607.234.962.962 0 0 0 .678-.254v-.631h-.693v.27zM44.923 53.372h-.324v1.6h1.121V54.7h-.797v-1.327zM48.317 53.372h-.324v1.6h.324v-1.6zM51.636 54.44l-.655-1.068h-.314v1.6h.301v-1.045l.643 1.045h.321v-1.6h-.296v1.068zM54.637 54.268h.797v-.272h-.797v-.351h.858v-.272h-1.181v1.6h1.214v-.272h-.89v-.432zM61.912 54.003h-.63v-.631h-.321v1.6h.321v-.699h.63v.699h.321v-1.6h-.321v.631zM64.93 54.268h.799v-.272h-.799v-.351h.86v-.272h-1.181v1.6h1.212v-.272h-.89v-.432zM69.023 54.268c.278-.043.42-.191.42-.445a.382.382 0 0 0-.157-.356.902.902 0 0 0-.468-.094h-.678v1.599h.321v-.669h.063a.429.429 0 0 1 .2.036.336.336 0 0 1 .114.117l.349.509h.385l-.195-.313a1.114 1.114 0 0 0-.354-.384zm-.324-.222h-.238v-.402h.253a.838.838 0 0 1 .326.038.212.212 0 0 1 .07.166c-.001.031-.01.062-.025.089s-.036.051-.061.07a.923.923 0 0 1-.326.038zM72.11 54.268h.797v-.272h-.797v-.351h.86v-.272h-1.184v1.6H73v-.272h-.89v-.432z" />
    </symbol>
    <symbol id="customers-client-3" viewBox="0 0 104 56">
      <path
        d="M36.81 49.223a.127.127 0 0 1 .086.033l.221.208a1.82 1.82 0 0 1-.621.394c-.278.1-.579.148-.881.141a2.38 2.38 0 0 1-.828-.132 1.833 1.833 0 0 1-.624-.373 1.67 1.67 0 0 1-.403-.575 1.903 1.903 0 0 1-.141-.738 1.77 1.77 0 0 1 .152-.741c.096-.214.242-.41.428-.575.189-.162.414-.29.662-.375.272-.09.561-.135.853-.132.271-.006.54.035.792.12.219.081.419.194.594.333l-.185.222a.181.181 0 0 1-.047.04.127.127 0 0 1-.074.017.182.182 0 0 1-.08-.024l-.099-.059-.138-.076a1.654 1.654 0 0 0-.436-.132 2 2 0 0 0-.329-.024 1.836 1.836 0 0 0-.613.099 1.414 1.414 0 0 0-.48.278 1.273 1.273 0 0 0-.312.444 1.465 1.465 0 0 0-.113.585c-.003.202.035.403.113.594a1.28 1.28 0 0 0 .764.715c.18.064.374.096.569.094a2.53 2.53 0 0 0 .337-.019 1.35 1.35 0 0 0 .729-.304.175.175 0 0 1 .105-.038zM43.186 48.18a1.77 1.77 0 0 1-.149.734c-.09.213-.232.407-.416.57s-.406.29-.652.374a2.732 2.732 0 0 1-1.678 0 1.955 1.955 0 0 1-.649-.375 1.67 1.67 0 0 1-.42-.575 1.882 1.882 0 0 1 0-1.469c.094-.214.237-.411.42-.578a1.96 1.96 0 0 1 .649-.361 2.689 2.689 0 0 1 1.678 0c.245.085.467.213.651.375a1.694 1.694 0 0 1 .566 1.306zm-.58 0c.004-.2-.031-.4-.105-.59a1.21 1.21 0 0 0-.761-.719 1.971 1.971 0 0 0-1.22 0 1.31 1.31 0 0 0-.466.278 1.186 1.186 0 0 0-.298.441c-.14.384-.14.795 0 1.179.062.163.164.313.298.441.13.12.289.215.466.276.393.126.827.126 1.22 0a1.29 1.29 0 0 0 .466-.276c.132-.128.233-.279.295-.441.074-.19.109-.389.105-.59zM47.537 48.799l.058.132c.022-.047.041-.09.063-.132.021-.044.045-.088.072-.13l1.41-2.191c.028-.038.053-.061.08-.068a.379.379 0 0 1 .116-.012h.417v3.563h-.494V47.23a.842.842 0 0 1 0-.123l-1.419 2.222c-.018.033-.047.062-.083.081s-.078.03-.121.03h-.08c-.043 0-.085-.01-.122-.029s-.065-.048-.083-.081l-1.46-2.236V49.954h-.477v-3.556h.417a.379.379 0 0 1 .116.012.152.152 0 0 1 .077.068l1.441 2.193a.843.843 0 0 1 .072.127zM52.845 48.622v1.335h-.552v-3.559h1.231a2.64 2.64 0 0 1 .687.078c.179.043.344.119.486.222a.916.916 0 0 1 .276.349c.065.145.097.3.094.455a.995.995 0 0 1-.4.811 1.415 1.415 0 0 1-.489.236 2.36 2.36 0 0 1-.665.083l-.668-.009zm0-.382h.668c.145.002.29-.017.428-.054a.951.951 0 0 0 .309-.153.67.67 0 0 0 .254-.536c.007-.099-.012-.198-.055-.29s-.109-.175-.193-.243a1.198 1.198 0 0 0-.742-.191h-.668v1.467zM60.264 49.961h-.436a.208.208 0 0 1-.121-.033.22.22 0 0 1-.072-.083l-.375-.861h-1.885l-.389.861a.205.205 0 0 1-.193.115h-.436l1.656-3.564h.574l1.678 3.564zm-2.732-1.323h1.557l-.657-1.45a2.288 2.288 0 0 1-.124-.335l-.063.186a1.429 1.429 0 0 1-.061.151l-.651 1.448zM62.65 46.414a.229.229 0 0 1 .083.064l2.415 2.686v-2.767h.494v3.564h-.276a.27.27 0 0 1-.113-.021.29.29 0 0 1-.088-.066l-2.412-2.684a.842.842 0 0 1 0 .123v2.648h-.494v-3.564h.293a.255.255 0 0 1 .099.017zM69.71 48.544v1.415h-.552v-1.415l-1.526-2.146h.494a.202.202 0 0 1 .119.031c.03.023.055.05.075.08l.955 1.384a1.842 1.842 0 0 1 .168.316l.072-.153c.027-.056.058-.111.094-.163l.941-1.394a.365.365 0 0 1 .072-.075.182.182 0 0 1 .119-.035h.5l-1.529 2.156zM47.263 40.417c.24.026.483.047.729.066 3.725-1.424 6.875-3.753 9.059-6.699s3.302-6.375 3.217-9.86l-4.105-3.507c.835 3.711.444 7.547-1.127 11.079s-4.263 6.621-7.772 8.921z" />
      <path
        d="m45.797 40.254.11.019c3.75-2.292 6.609-5.492 8.207-9.187s1.862-7.714.758-11.539l-5.846-4.995c2.365 4.106 3.317 8.701 2.745 13.251s-2.643 8.868-5.974 12.451zM65.625 28.042c-.993 3.83-3.406 7.283-6.879 9.849a22.018 22.018 0 0 1-3.268 2.005c2.828-.71 5.428-1.966 7.598-3.67s3.854-3.812 4.92-6.16l-2.371-2.023z" />
      <path
        d="m64.695 27.478-3.376-2.884c-.064 3.289-1.159 6.502-3.169 9.307S53.287 39 49.888 40.544h.017c.757 0 1.514-.039 2.266-.116 3.176-1.108 5.982-2.87 8.168-5.13s3.682-4.946 4.356-7.82zM46.286 12.446 42.259 9c-3.6 1.189-6.697 3.278-8.884 5.996S30.011 20.931 30 24.229c.014 3.644 1.449 7.18 4.079 10.048s6.305 4.906 10.443 5.789c3.694-3.845 5.856-8.596 6.174-13.563s-1.228-9.891-4.41-14.057zM74 26.948c-.015-4.323-2.031-8.466-5.609-11.523s-8.427-4.78-13.487-4.792a21.79 21.79 0 0 0-6.837 1.087l24.658 21.068A14.08 14.08 0 0 0 74 26.949z" />
    </symbol>
    <symbol id="customers-client-4" viewBox="0 0 104 56">
      <path
        d="M24.078 21.518h-.003c-2.386 0-4.32 1.744-4.32 3.895v.003c0 2.151 1.934 3.894 4.32 3.894h.003c2.386 0 4.32-1.744 4.32-3.894v-.003c0-2.151-1.934-3.895-4.32-3.895zM55.961 20.273c-.007-2.988-1.326-5.851-3.668-7.964S46.775 9.006 43.461 9c-3.315.005-6.492 1.195-8.835 3.308s-3.664 4.977-3.671 7.965v16.474s25.004-2.511 25.006-16.472v-.003zM11 42.154c.006 2.079.924 4.071 2.554 5.541s3.839 2.299 6.145 2.305c2.305-.006 4.514-.834 6.144-2.304s2.549-3.461 2.555-5.539V30.694S11 32.442 11 42.154zm8.699 2.054c-.451 0-.891-.12-1.266-.346s-.667-.546-.839-.922-.217-.788-.13-1.187c.088-.398.305-.764.623-1.052s.724-.483 1.166-.562c.442-.079.9-.038 1.316.117s.772.419 1.022.756c.25.338.384.735.384 1.141.001.27-.057.538-.171.788s-.282.477-.493.669c-.212.192-.463.343-.74.447s-.574.157-.874.157v-.008zM35.609 40.515v4.266h-.879v-4.266h.879zm1.699 1.822v.686h-1.939v-.686h1.939zm.205-1.822v.689h-2.145v-.689h2.145zm4.014 2.033v.202c0 .324-.044.615-.132.873s-.212.478-.372.659c-.16.18-.351.317-.574.413a1.825 1.825 0 0 1-.735.143 1.85 1.85 0 0 1-.735-.143 1.643 1.643 0 0 1-.574-.413 1.936 1.936 0 0 1-.378-.659 2.695 2.695 0 0 1-.132-.873v-.202c0-.326.044-.617.132-.873.088-.258.212-.478.372-.659.162-.182.354-.32.574-.416a1.84 1.84 0 0 1 .735-.144c.27 0 .515.048.735.144.223.096.414.234.574.416.162.182.287.401.375.659.09.256.135.547.135.873zm-.888.202v-.208c0-.227-.021-.426-.062-.598s-.102-.316-.182-.434-.178-.205-.293-.264c-.115-.06-.247-.091-.395-.091s-.28.03-.395.091a.799.799 0 0 0-.29.264c-.078.117-.138.262-.179.434s-.062.371-.062.598v.208c0 .225.021.424.062.598.041.172.102.317.182.437.08.117.178.206.293.267s.247.091.395.091c.148 0 .28-.03.395-.091s.212-.149.29-.267c.078-.119.138-.265.179-.437.041-.174.062-.373.062-.598zm3.741.914a.576.576 0 0 0-.035-.205.386.386 0 0 0-.123-.17c-.061-.053-.146-.105-.255-.155s-.251-.104-.425-.158a5.58 5.58 0 0 1-.551-.211 2.281 2.281 0 0 1-.457-.272 1.241 1.241 0 0 1-.311-.366 1.013 1.013 0 0 1-.111-.483c0-.178.039-.339.117-.483.078-.146.188-.271.328-.375.141-.105.307-.186.498-.243a2.24 2.24 0 0 1 .636-.085c.314 0 .589.057.823.17s.416.269.545.466c.131.197.196.423.196.677h-.873a.655.655 0 0 0-.079-.328.539.539 0 0 0-.234-.226.833.833 0 0 0-.393-.082.91.91 0 0 0-.381.07.496.496 0 0 0-.228.185.452.452 0 0 0-.076.258c0 .072.018.138.053.196.037.059.092.113.164.164s.161.099.267.144c.105.045.227.089.366.132.232.07.437.149.612.237.178.088.326.186.445.296s.209.233.27.372c.06.139.091.296.091.472 0 .186-.036.351-.108.498s-.177.27-.314.372c-.137.102-.3.179-.489.231s-.401.079-.636.079c-.211 0-.419-.027-.624-.082a1.916 1.916 0 0 1-.56-.255c-.166-.113-.299-.258-.398-.434s-.149-.384-.149-.624h.882c0 .133.021.245.062.337s.099.166.173.223a.727.727 0 0 0 .27.123c.105.025.221.038.346.038a.94.94 0 0 0 .375-.064.464.464 0 0 0 .293-.437zm3.384-3.149v4.266h-.876v-4.266h.876zm1.313 0v.689h-3.48v-.689h3.48zm3.363 3.58v.686h-2.271v-.686h2.271zm-1.984-3.58v4.266h-.879v-4.266h.879zm1.688 1.737v.668h-1.975v-.668h1.975zm.293-1.737v.689h-2.268v-.689h2.268zm.516 0h1.591c.326 0 .606.049.841.147.236.098.418.242.545.434s.19.427.19.706c0 .229-.039.425-.117.589a1.104 1.104 0 0 1-.325.407 1.696 1.696 0 0 1-.489.258l-.278.146h-1.383l-.006-.686h1.028c.154 0 .282-.027.384-.082s.178-.131.228-.229a.703.703 0 0 0 .079-.34c0-.137-.025-.255-.076-.354s-.128-.176-.231-.228-.233-.079-.39-.079h-.712v3.577h-.879v-4.266zm2.384 4.266-.973-1.901.929-.006.984 1.866v.041h-.94zm4.615-1.521h-1.087v-.686h1.087a.884.884 0 0 0 .41-.082c.105-.057.183-.135.231-.234s.073-.212.073-.337c0-.127-.024-.245-.073-.354s-.126-.197-.231-.264-.242-.1-.41-.1h-.782v3.577h-.879v-4.266h1.661c.334 0 .62.061.858.182.24.119.424.284.551.495s.19.452.19.724c0 .275-.063.514-.19.715s-.311.357-.551.466a2.052 2.052 0 0 1-.858.164zm5.068.835v.686h-2.271v-.686h2.271zm-1.983-3.58v4.266h-.879v-4.266h.879zm1.687 1.737v.668h-1.975v-.668h1.975zm.293-1.737v.689h-2.268v-.689h2.268zm2.481 0v4.266h-.876v-4.266h.876zm1.313 0v.689h-3.48v-.689h3.48zm3.363 3.58v.686h-2.271v-.686h2.271zm-1.983-3.58v4.266h-.879v-4.266h.879zm1.687 1.737v.668h-1.975v-.668h1.975zm.293-1.737v.689h-2.268v-.689h2.268zm.516 0h1.591c.326 0 .606.049.841.147.236.098.418.242.545.434s.19.427.19.706c0 .229-.039.425-.117.589a1.104 1.104 0 0 1-.325.407 1.696 1.696 0 0 1-.489.258l-.278.146h-1.383l-.006-.686h1.028c.154 0 .282-.027.384-.082s.178-.131.228-.229a.703.703 0 0 0 .079-.34c0-.137-.025-.255-.076-.354s-.128-.176-.231-.228a.852.852 0 0 0-.39-.079h-.712v3.577h-.879v-4.266zm2.385 4.266-.973-1.901.929-.006.984 1.866v.041h-.94zm3.679-1.117a.576.576 0 0 0-.035-.205.386.386 0 0 0-.123-.17c-.061-.053-.146-.105-.255-.155s-.251-.104-.425-.158a5.58 5.58 0 0 1-.551-.211 2.281 2.281 0 0 1-.457-.272 1.241 1.241 0 0 1-.311-.366 1.013 1.013 0 0 1-.111-.483c0-.178.039-.339.117-.483.078-.146.188-.271.328-.375.141-.105.307-.186.498-.243a2.24 2.24 0 0 1 .636-.085c.314 0 .589.057.823.17s.416.269.545.466c.131.197.196.423.196.677h-.873a.655.655 0 0 0-.079-.328.539.539 0 0 0-.234-.226.833.833 0 0 0-.393-.082.91.91 0 0 0-.381.07.496.496 0 0 0-.228.185.452.452 0 0 0-.076.258c0 .072.018.138.053.196.037.059.092.113.164.164s.161.099.267.144c.105.045.228.089.366.132.232.07.437.149.612.237.178.088.326.186.445.296s.209.233.27.372c.06.139.091.296.091.472 0 .186-.036.351-.108.498s-.177.27-.314.372c-.137.102-.3.179-.489.231s-.401.079-.636.079c-.211 0-.419-.027-.624-.082a1.916 1.916 0 0 1-.56-.255c-.166-.113-.299-.258-.398-.434s-.149-.384-.149-.624h.882c0 .133.021.245.062.337s.099.166.173.223a.727.727 0 0 0 .27.123c.105.025.221.038.346.038a.94.94 0 0 0 .375-.064.464.464 0 0 0 .293-.437z" />
    </symbol>
    <symbol id="customers-client-5" viewBox="0 0 104 56">
      <path
        d="M26.792 44.373c.245.273.376.616.369.968.013.229-.032.458-.132.67s-.25.4-.441.553a2.678 2.678 0 0 1-1.664.446h-2.925v-6.132h2.865a2.644 2.644 0 0 1 1.587.407c.185.139.332.316.428.515s.14.416.128.633c.017.338-.101.671-.333.938a1.58 1.58 0 0 1-.872.479c.388.064.738.249.988.524zm-3.431-.926h1.225c.278.019.555-.054.779-.204.092-.075.164-.168.209-.272s.064-.216.054-.327c.009-.111-.01-.222-.055-.326s-.115-.197-.205-.273a1.283 1.283 0 0 0-.802-.207h-1.205v1.609zm2.123 2.352c.098-.077.175-.173.226-.281s.072-.225.064-.342c.007-.118-.015-.237-.067-.346s-.13-.206-.23-.283a1.369 1.369 0 0 0-.832-.222H23.36v1.687h1.301c.293.015.583-.06.822-.213zM32.649 47.009l-1.594-2.397h-.599v2.397h-1.371v-6.132h2.596a2.757 2.757 0 0 1 1.807.521c.363.333.582.771.617 1.237s-.115.927-.424 1.301c-.32.33-.758.55-1.238.623l1.697 2.45h-1.491zm-2.193-3.232h1.121c.779 0 1.168-.31 1.168-.929.008-.126-.013-.253-.063-.372s-.125-.227-.224-.318a1.308 1.308 0 0 0-.882-.249h-1.135l.013 1.866zM40.143 45.775h-2.732l-.483 1.234H35.49l2.509-6.063h1.554l2.499 6.063h-1.438l-.472-1.234zm-.366-.929-.998-2.588-.998 2.588h1.997zM49.523 47.009h-1.361l-3.052-4.17v4.17h-1.358v-6.132h1.358l3.052 4.194v-4.194h1.361v6.132zM57.29 45.542c-.281.463-.71.84-1.231 1.081a4.382 4.382 0 0 1-1.913.386h-2.423v-6.132h2.423a4.457 4.457 0 0 1 1.913.378c.521.236.95.609 1.231 1.07.28.499.426 1.05.426 1.609s-.146 1.11-.426 1.609zm-1.557-.147c.388-.407.602-.927.602-1.463s-.214-1.056-.602-1.463a2.536 2.536 0 0 0-1.704-.521h-.945v3.969h.945a2.537 2.537 0 0 0 1.704-.521zM40.995 6.767s17.567 5.971 17.194 14.611v14.613s-17.554-5.974-17.188-14.613l-.007-14.611zM73.839 32.569c3.318-2.055 7.155-3.329 11.161-3.703v-4.575c-4.616 1.602-8.531 4.505-11.161 8.277z" />
      <path
        d="M71.846 33.948c2.716-4.922 7.423-8.721 13.154-10.614V10.153s-25.018 8.505-24.489 20.809v20.806s1.115-.381 2.869-1.093c0-.665 0-1.336.08-2.01.518-5.712 3.534-11.005 8.386-14.715z" />
      <path
        d="M69.466 41.677a19.63 19.63 0 0 1 .875-4.26c-3.021 3.204-4.851 7.18-5.231 11.369-.037.395-.057.791-.067 1.198a75.57 75.57 0 0 0 4.812-2.283 19.44 19.44 0 0 1-.389-6.025zM70.461 41.752a18.578 18.578 0 0 0 .309 5.455c6.835-3.682 14.515-9.371 14.219-16.246v-.599c-4.883.492-9.452 2.414-13.005 5.47a18.813 18.813 0 0 0-1.524 5.92z" />
    </symbol>
    <symbol id="customers-client-6" viewBox="0 0 104 56">
      <path
        d="M53.529 27.443a2.955 2.955 0 0 1-.606-1.992v-2.888c0-.885.201-1.558.603-2.018s1.092-.689 2.07-.687c.919 0 1.572.196 1.958.588.421.5.626 1.111.579 1.728v.679h-1.645v-.687c.006-.225-.01-.45-.048-.673a.654.654 0 0 0-.235-.4.954.954 0 0 0-.596-.156 1.01 1.01 0 0 0-.626.164.766.766 0 0 0-.272.441 3.365 3.365 0 0 0-.065.714v3.505c-.026.338.047.676.211.984.082.104.195.187.328.239s.28.071.424.055a.891.891 0 0 0 .582-.159.707.707 0 0 0 .245-.426c.038-.233.056-.467.051-.702v-.711h1.645v.649a2.645 2.645 0 0 1-.569 1.816c-.378.429-1.021.643-1.968.643s-1.662-.229-2.067-.705zM60.376 27.473c-.415-.449-.623-1.105-.623-1.971v-3.038c0-.858.208-1.507.623-1.948s1.11-.66 2.084-.658c.967 0 1.658.219 2.073.658.415.441.627 1.09.627 1.948v3.038c0 .858-.211 1.516-.633 1.968s-1.11.679-2.067.679-1.665-.229-2.084-.676zm2.85-.729c.149-.281.217-.59.197-.899v-3.72a1.654 1.654 0 0 0-.194-.881c-.083-.106-.2-.19-.336-.242s-.286-.07-.434-.052c-.148-.018-.298 0-.435.052s-.253.136-.338.242c-.15.275-.218.578-.197.881v3.737c-.021.309.047.618.197.899.096.095.214.171.347.223a1.164 1.164 0 0 0 .846 0 1.02 1.02 0 0 0 .347-.223v-.018zM67.138 19.946h1.771l1.331 5.605 1.362-5.605h1.723l.174 8.091h-1.273l-.136-5.623-1.314 5.623h-1.021l-1.362-5.643-.126 5.643H66.98l.16-8.091zM75.483 19.946h2.758c1.589 0 2.383.766 2.383 2.297 0 1.467-.836 2.199-2.509 2.197h-.94v3.596h-1.702l.01-8.091zm2.356 3.458c.168.018.339.005.501-.039s.31-.118.436-.217c.195-.273.281-.594.245-.914a2.493 2.493 0 0 0-.082-.734c-.024-.081-.067-.156-.125-.222s-.132-.121-.215-.163a1.758 1.758 0 0 0-.759-.129h-.661v2.418h.661zM83.079 19.946h1.828l1.876 8.091h-1.587l-.371-1.866h-1.631l-.381 1.866h-1.61l1.876-8.091zm1.562 5.288-.637-3.396-.637 3.396h1.273zM88.298 19.946h1.192l2.281 4.615v-4.615h1.413v8.091H92.05l-2.295-4.818v4.818h-1.461l.003-8.091zM96.493 24.952l-1.896-4.994h1.597l1.158 3.208 1.086-3.208h1.563l-1.873 4.994v3.085h-1.634v-3.085zM56.158 31.574v.423h-1.389v3.287h-.582v-3.287h-1.396v-.423h3.367zM60.512 35.284h-.449a.196.196 0 0 1-.126-.035.192.192 0 0 1-.075-.085l-.402-.881h-1.927l-.402.881a.238.238 0 0 1-.061.1.206.206 0 0 1-.126.035h-.449l1.702-3.71h.592l1.723 3.696zm-2.819-1.377H59.3l-.681-1.51a2.757 2.757 0 0 1-.126-.35c-.024.07-.044.138-.065.197l-.061.156-.674 1.507zM63.447 34.92c.107.005.213.005.32 0 .092-.008.183-.023.272-.044.083-.018.165-.04.245-.068.075-.026.15-.059.228-.091v-.834h-.681a.132.132 0 0 1-.091-.029c-.011-.008-.02-.019-.026-.03s-.009-.024-.008-.037v-.285h1.321v1.422a2.485 2.485 0 0 1-.718.302 3.039 3.039 0 0 1-.426.076 5.151 5.151 0 0 1-.497.024 2.61 2.61 0 0 1-.858-.138 2.082 2.082 0 0 1-.681-.388 1.778 1.778 0 0 1-.439-.588 1.872 1.872 0 0 1-.157-.77 1.916 1.916 0 0 1 .153-.776c.098-.22.247-.42.439-.588.194-.167.426-.298.681-.385.292-.095.601-.141.913-.138.158 0 .317.011.473.032.138.019.274.051.405.094.119.039.233.088.34.147.104.058.203.123.296.194l-.163.229c-.013.021-.032.038-.055.051s-.05.019-.077.02a.227.227 0 0 1-.106-.029 2.572 2.572 0 0 1-.167-.088 1.5 1.5 0 0 0-.228-.1 2.087 2.087 0 0 0-.745-.114 2.016 2.016 0 0 0-.657.103c-.189.066-.36.166-.5.294-.141.133-.249.29-.317.461a1.735 1.735 0 0 0 0 1.237c.074.175.19.334.34.467.14.127.309.227.497.294.217.064.446.089.674.074zM68.874 34.861h1.859v.423h-2.428v-3.711h.582l-.014 3.287zM72.667 35.284h-.582v-3.711h.582v3.711zM74.833 31.591c.035.017.065.04.089.068l2.489 2.797a.97.97 0 0 1 0-.132V31.56h.507v3.725h-.293a.27.27 0 0 1-.126-.021.32.32 0 0 1-.092-.07L74.922 32.4V35.285h-.487v-3.711h.303c.033 0 .065.006.095.018zM82.204 31.574v.408h-2.063v1.225h1.672v.394h-1.672v1.266h2.063v.408h-2.662v-3.702h2.662zM21.195 8.659l25.852 6.334v22.196l-25.852-6.331V8.66zm-1.658-1.892v25.169l29.165 7.148V13.918L19.537 6.767z" />
      <path d="M35.168 50.767 6 43.613V18.447l29.168 7.151v25.169z" />
      <path
        d="m20.02 8.374 25.515 6.255-10.851 9.366-25.518-6.258L20.02 8.374zm-.483-1.607L6 18.448l29.168 7.151 13.534-11.681-29.165-7.151zM36.809 49.351l11.893-10.265-11.893-2.917v13.182z" />
    </symbol>
    <symbol id="close-button" viewBox="0 0 64 64">
      <path
        d="M64 6.448 57.552 0 32 25.552 6.448 0 0 6.448 25.552 32 0 57.552 6.448 64 32 38.448 57.552 64 64 57.552 38.448 32 64 6.448z" />
    </symbol>
    <symbol id="modal-email-icon" viewBox="0 0 48 64">
      <path
        d="M40 16H8c-2.2 0-3.98 1.8-3.98 4L4 44c0 2.2 1.8 4 4 4h32c2.2 0 4-1.8 4-4V20c0-2.2-1.8-4-4-4zm-.8 8.5-14.14 8.84c-.64.4-1.48.4-2.12 0L8.8 24.5c-.5-.32-.8-.86-.8-1.44 0-1.34 1.46-2.14 2.6-1.44L24 30l13.4-8.38c1.14-.7 2.6.1 2.6 1.44 0 .58-.3 1.12-.8 1.44z" />
    </symbol>
    <symbol id="modal-person-icon" viewBox="0 0 64 64">
      <path
        d="M32 32c5.893 0 10.667-4.773 10.667-10.667S37.894 10.666 32 10.666c-5.893 0-10.667 4.773-10.667 10.667S26.106 32 32 32zm0 5.333c-7.12 0-21.333 3.573-21.333 10.667v2.667c0 1.467 1.2 2.667 2.667 2.667h37.333c1.467 0 2.667-1.2 2.667-2.667V48c0-7.093-14.213-10.667-21.333-10.667z" />
    </symbol>
    <symbol id="modal-phone-icon" viewBox="0 0 48 64">
      <path
        d="m39.27 36.974-4.902-.56a3.842 3.842 0 0 0-3.165 1.1l-3.551 3.551a29.039 29.039 0 0 1-12.717-12.717l3.57-3.57a3.842 3.842 0 0 0 1.1-3.165l-.56-4.863a3.863 3.863 0 0 0-3.84-3.416h-3.339c-2.181 0-3.995 1.814-3.86 3.995C9.029 33.81 22.209 46.971 38.671 47.994c2.181.135 3.995-1.679 3.995-3.859v-3.339c.019-1.949-1.447-3.589-3.396-3.821z" />
    </symbol>
    <symbol id="check-mark" viewBox="0 0 20 16">
      <path
        d="M16.891.51a1.834 1.834 0 0 1 2.558.02 1.855 1.855 0 0 1 .068 2.571L9.728 15.41a1.83 1.83 0 0 1-2.037.457 1.834 1.834 0 0 1-.613-.408L.586 8.932a1.863 1.863 0 0 1-.451-2.046 1.85 1.85 0 0 1 1.017-1.022 1.823 1.823 0 0 1 1.438.026c.225.101.429.247.597.429l5.137 5.163L16.845.567a.628.628 0 0 1 .049-.054h-.002z" />
    </symbol>
    <symbol id="footer-subscribe-icon" viewBox="0 0 64 64">
      <path
        d="m64 5.333-64 30 20.453 6.313L52 17 28.005 43.977l.019.006-.024-.006v14.69l11.47-11.151L54 52.001 64 5.334z" />
    </symbol>
  </defs>
</svg>